<?xml version="1.0" encoding="utf-8"?>
<!-- Generator: Adobe Illustrator 26.2.1, SVG Export Plug-In . SVG Version: 6.00 Build 0)  -->
<svg version="1.1" id="Capa_1" xmlns="http://www.w3.org/2000/svg" xmlns:xlink="http://www.w3.org/1999/xlink" x="0px" y="0px"
	 viewBox="0 0 73 74" style="enable-background:new 0 0 73 74;" xml:space="preserve">
<style type="text/css">
	.st0{fill:#FFFFFF;}
	.st1{fill:none;}
	.st2{fill:#1C1B1B;}
	.st3{fill:#9C3E6B;}
	.st4{fill:none;stroke:#9C3E6B;stroke-miterlimit:10;}
</style>
<g id="Object">
	<g>
		<path class="st2" d="M25,21.2l0.1,0.2c-0.2,0.1-0.4,0.2-0.6,0.3c0.1,0,0.2,0,0.4,0c-0.1,0-0.1,0.1-0.2,0.1c0,0,0,0,0.1,0
			c-0.1,0-0.2,0-0.3,0c-0.4,0-0.9,0.1-1.4,0.2c-0.3,0-0.9,0.9-0.2,1.4c0.4,0.4,0.6,0.4,0.9,0.6c0.3,0.1,0.6,0.2,0.9,0.3
			c-0.2,0.1-0.5,0.1-0.8,0.3c-0.4,0.9,0,1.2,0.6,1.4c0.5,0.2,1.2,0.3,1.6,0.4c2.2,0.5,4.8,0.7,7.5,0.7c2.7,0,5.3-0.1,7.5-0.5
			c1.1-0.2,2.1-0.4,2.9-0.7c0.1-0.1,0.3-0.1,0.4-0.2c0.3-0.1,0.5-0.4,0.5-0.7c0,0-0.1,0-0.1-0.1c0-0.2-0.1-0.4-0.2-0.6
			c-0.2-0.2-0.3-0.3-0.5-0.4c0,0,0.1,0,0.1,0c0.4-0.2,1.1-0.4,1.1-1.2c-0.2-0.3-0.4-0.4-0.6-0.4c-0.1-0.2-0.2-0.4-0.4-0.6l0,0
			c0,0,0.1,0.1,0.1,0.1l-0.2-0.4c0,0,0-0.1-0.1-0.1c0,0,0,0,0-0.1c-1-2.7,3.4-5.6,2.5-10.6C45.9,5.7,41.1,0.1,34.4-0.1
			c-6.6-0.1-11.6,5.3-12.5,10.2C20.1,15.7,25.6,18.3,25,21.2z M37.2,20.9c0,0.4,0,0.8,0,1.2c0,0.3,0,0.7,0,1c-0.4,0-0.8,0-1.1,0
			c0-0.4,0-0.7,0-1.1c0-0.4,0-0.7,0-1C36.5,20.9,36.9,20.9,37.2,20.9z M35.5,23.1c-0.3,0-0.6,0-0.9,0c0-0.4,0-0.7,0-1.2
			c0-0.3-0.1-0.6-0.1-1c0.3,0,0.6,0,1,0c0,0.3,0,0.7,0,1C35.5,22.4,35.5,22.7,35.5,23.1z M34.1,22c0,0.4,0,0.8,0.1,1.1
			c-0.2,0-0.5,0-0.8,0c-0.2,0-0.5,0-0.7,0c0-0.3,0-0.6,0-1c0-0.4,0-0.7-0.1-1c0.4,0,0.9-0.1,1.4-0.1C34,21.3,34,21.6,34.1,22z
			 M32.1,23.1c-0.4,0-0.8,0-1.2,0c0.1-0.4,0.1-0.9,0.1-1.4c0-0.1,0-0.3,0-0.4c0.4,0,0.8-0.1,1.1-0.1c0,0.3-0.1,0.6-0.1,1
			C32.1,22.5,32.1,22.8,32.1,23.1z M30.5,23c-0.3,0-0.6,0-0.9,0c0.1-0.3,0.1-0.7,0.1-1.1c0-0.2,0-0.4-0.1-0.6c0.2,0,0.5,0,0.7-0.1
			c0,0.1,0,0.2,0,0.4C30.4,22.1,30.4,22.6,30.5,23z M29.1,21.9c0,0.4,0,0.8,0,1.1c-0.4,0-0.8,0-1.2,0c0-0.3,0.1-0.6,0.1-0.9
			c0-0.2,0-0.5,0-0.7c0.4,0,0.8-0.1,1.2-0.1C29.1,21.5,29.1,21.7,29.1,21.9z M27.3,23c-0.3,0-0.6,0-0.8,0c0.1-0.4,0.2-0.8,0.3-1.4
			c0.1,0,0.3,0,0.5,0c0,0.2,0,0.4,0,0.6C27.3,22.4,27.3,22.7,27.3,23z M25.9,22.1c0.1-0.1,0.1-0.1,0.2-0.2c0,0.4,0,0.7,0,1
			c-0.1,0-0.1,0-0.2,0c-0.4,0.1-0.8,0-1.2-0.1C25.2,22.7,25.6,22.5,25.9,22.1z M44.1,24.7C44,24.7,44,24.7,44.1,24.7
			C44.1,24.7,44.1,24.7,44.1,24.7C44.1,24.7,44.1,24.7,44.1,24.7c0.2,0.3,0.3,0.5,0.4,0.6c-0.5,0.4-2.4,0.5-3.6,0.6
			c-2.1,0.1-4.7,0.2-7.4,0.2c-2.6,0-5.1-0.1-7.2-0.4c-0.9,0-2.3-0.4-2.2-0.5c0.2-0.3,0.7-0.5,1.1-0.6c0.1,0,0.1,0,0.2,0.1
			c2.3,0.6,5,0.9,7.9,0.9c1.4,0,2.8,0,4.1-0.1c0,0,0,0,0,0.1l0,0.1c0,0,0-0.1,0-0.1c1.3-0.1,2.5-0.3,3.6-0.5
			c0.9-0.2,1.8-0.4,2.6-0.7C43.8,24.4,43.9,24.5,44.1,24.7z M44.2,22.3c0.2,0.2,0.3,0.4,0.4,0.6c-0.6,0.2-2.4,0-3.6,0.1
			c-1,0-2.1,0-3.2,0c0-0.3,0-0.6,0-1c0-0.4,0-0.8,0-1.2c1.8,0,3.4,0.1,4.3,0.5l1.2,0.3C43.7,21.8,44,22,44.2,22.3
			C44.2,22.3,44.2,22.3,44.2,22.3C44.2,22.3,44.2,22.3,44.2,22.3z"/>
		<path class="st3" d="M25.7,37.1c-0.2,0.1-0.5,0.3-0.8,0.5c-0.2,0.2-0.5,0.4-0.7,0.6c0,0,0,0-0.1,0.1c0,0.5-0.2,0.8-0.9,1
			c-0.1,0.1-0.2,0.2-0.3,0.4c-0.2,0.2-0.3,0.5-0.4,0.8c-0.7,1.7-0.8,3.5-0.3,5.3c0.1,0.3,0.2,0.7,0.4,1c0.4,1,1,1.8,1.6,2.7
			c0.2,0.3,0.4,0.5,0.7,0.8c0.3,0.3,0.5,0.6,0.8,0.9c0.3,0,0.7,0,1.1,0c0.6,0.5,0.5,0.8-0.1,1.1c1.5,1.5,3,2.9,4.5,4.4
			c0.2,0.2,0.4,0.4,0.6,0.6c0.9,1,1.9,2,2.8,2.9c0.2,0.2,0.4,0.5,0.7,0.7c1.3,1.3,2.5,2.6,3.7,4c1-1.4,2-2.8,3.1-4.2
			c0.2-0.2,0.4-0.5,0.6-0.7c0.8-1,1.6-2,2.4-3c0.1-0.2,0.3-0.4,0.5-0.6c0,0,0,0,0,0c0,0-0.1,0-0.1,0c-2.6-0.1-2.3-2.3,0.9-1.7
			c0.1,0.1,0.2,0.2,0.3,0.4c1.5-1.7,3-3.3,4.2-5.2c0.2-0.3,0.4-0.5,0.5-0.8c0.5-0.8,0.9-1.7,1.2-2.7c0.1-0.3,0.2-0.7,0.2-1
			c0.2-1.8-0.1-3.6-1.1-5.3c-0.1-0.3-0.3-0.5-0.5-0.8c-0.4-0.5-0.9-1-1.4-1.4c-0.2-0.2-0.5-0.4-0.8-0.5c-0.3-0.2-0.5-0.3-0.8-0.4
			c-2.2-1-4.8-0.8-6.9,0.2c-2,1-3.3,3-4.1,5c-1.1-2-2.7-3.9-4.8-4.8C30.4,36.2,27.8,36,25.7,37.1z M38.6,45.4c1,0.1,2,0.2,1.8,0.9
			c0.8-0.3,0.3-1.2,1.3-1.3c1,0.7,2.2,1.7,3.9,1.5c-1.1,0.8,1.9,1.4,1.8,2.4c-2.5,0.2-4.9,0.2-7.8-0.8c0.6-1.4-0.9-0.4-1.8-1.6
			C37.9,46.1,38.2,45.7,38.6,45.4z M34.3,48.5c-0.4,0.3-1.2,0.4-0.9,1.1c-0.7,0-1.4-0.1-2.2-0.1c-0.5-0.6-1-1.2-0.9-2
			C32.9,47.4,32.7,48.3,34.3,48.5z"/>
		<path class="st2" d="M46,68.4c-4.3,0.1-8.7-0.1-13,0c-2.2,0.1-4.4,0.2-6.7,0.4c-2.1,0.7-4.3-0.4-6.4,1.9
			c-4-4.2-10.6-14.2-8.2-26.6c2.2-12.3,11.7-19.4,16.9-22.1l0.5-0.2c-5.4,1.1-17.2,7.9-19.8,21.9c-2.6,13.6,5.7,24,10.6,27.1
			c-0.2,0.2-0.3,0.4-0.5,0.6c9.8,3.8,18.3,2.2,25.9,2.5c3.3-0.2,6.7-0.2,10-0.6c1.2-0.2,5.1-0.6,6.1-2c0.2-0.2,0.3-0.5,0.2-0.9
			C61.4,68.3,47.7,68.3,46,68.4z"/>
	</g>
</g>
</svg>
