<?xml version="1.0" encoding="utf-8"?>
<!-- Generator: Adobe Illustrator 26.2.1, SVG Export Plug-In . SVG Version: 6.00 Build 0)  -->
<svg version="1.1" xmlns="http://www.w3.org/2000/svg" xmlns:xlink="http://www.w3.org/1999/xlink" x="0px" y="0px"
	 viewBox="0 0 463.59 74" style="enable-background:new 0 0 463.59 74;" xml:space="preserve">
<style type="text/css">
	.st0{fill:#FFFFFF;}
	.st1{fill:#1C1B1B;}
	.st2{fill:#9C3E6B;}
	.st3{fill:none;stroke:#9C3E6B;stroke-miterlimit:10;}
</style>
<g id="BG">
	<rect x="-1300.48" y="65.75" class="st0" width="1122" height="1122"/>
</g>
<g id="Object">
	<g>
		<path id="SVGID_x5F_1_x5F_" style="fill:none;" d="M-711.92,295.45c-1.21,46.19-39.63,82.67-85.83,81.46
			c-46.19-1.21-82.66-39.63-81.46-85.83s39.63-82.67,85.83-81.46C-747.19,210.83-710.72,249.26-711.92,295.45z"/>
		<text>		<textPath  xlink:href="#SVGID_x5F_1_x5F_" startOffset="67.3667%">
<tspan  style="font-family:'Sofia-Regular'; font-size:51.3094px;"> </tspan><tspan  class="st2" style="font-family:'Sofia-Regular'; font-size:46.7821px;">moon arome</tspan>		</textPath>
</text>
		<path id="SVGID_x5F_00000116204078288544061290000018083239214249126827_x5F_" style="fill:none;" d="M-686.14,281.86
			c-3.39-60.8-55.42-107.35-116.22-103.96s-107.35,55.42-103.96,116.22s55.42,107.35,116.22,103.96S-682.75,342.66-686.14,281.86z"
			/>
		<text>		<textPath  xlink:href="#SVGID_x5F_00000116204078288544061290000018083239214249126827_x5F_" startOffset="64.5873%">
<tspan  style="font-family:'Sofia-Regular'; font-size:36px;">       perfumes</tspan>		</textPath>
</text>
		<g>
			<g>
				<path class="st1" d="M-759.86,299.08c-4.47-16.76-19.35-24.36-26.23-25.21c6.49,2.7,19.25,10.77,23.27,26
					c0.05,0.18,0.09,0.35,0.14,0.53c-0.07,0.07-0.11,0.18-0.12,0.3c-0.03-0.01-0.05-0.03-0.08-0.04c-0.3-0.12-0.63-0.08-0.89,0.06
					l-0.02,0c0.05,0.27,0.33,0.54,0.73,0.68c0.22,0.08,0.45,0.04,0.63-0.04c0.05,0.23,0.1,0.47,0.15,0.7
					c-0.21-0.03-0.43-0.05-0.67-0.05c-0.71,0-1.32,0.15-1.66,0.37l-0.03,0.01c0.33,0.24,0.96,0.39,1.68,0.39
					c0.29,0,0.56-0.03,0.8-0.08c0.06,0.35,0.12,0.69,0.18,1.04c-0.24-0.03-0.5-0.06-0.77-0.06c-0.79,0-1.49,0.15-1.86,0.37
					l-0.03,0.01c0.37,0.23,1.08,0.39,1.9,0.39c0.31,0,0.6-0.03,0.87-0.07c0.05,0.33,0.1,0.67,0.14,1c-0.19-0.02-0.38-0.03-0.59-0.03
					c-0.79,0-1.49,0.15-1.86,0.37l-0.04,0.01c0.37,0.24,1.08,0.39,1.9,0.39c0.23,0,0.45-0.01,0.65-0.04
					c0.04,0.47,0.08,0.94,0.11,1.41c-0.3-0.05-0.61-0.09-0.96-0.1c-0.83-0.15-1.59-0.13-2.08,0.01l-0.04,0
					c0.33,0.29,1.11,0.6,2.06,0.76c0.38,0.01,0.73-0.01,1.05-0.05c0.01,0.38,0.02,0.75,0.03,1.13c-0.11-0.04-0.21-0.07-0.32-0.11
					c-0.57-0.17-1.12-0.16-1.52-0.05l-0.03,0c0.18,0.29,0.71,0.61,1.39,0.8c0.16,0.05,0.32,0.08,0.47,0.1
					c0,0.41-0.02,0.82-0.03,1.23c-0.18-0.03-0.36-0.04-0.55-0.05c-0.66-0.15-1.27-0.13-1.67,0.01l-0.03,0
					c0.24,0.29,0.87,0.59,1.63,0.75c0.21,0.01,0.41,0,0.59-0.01c-0.02,0.32-0.05,0.65-0.07,0.97c-0.25-0.08-0.52-0.14-0.82-0.18
					c-0.71-0.09-1.39-0.04-1.72,0.14l-0.03,0.01c0.34,0.28,0.9,0.53,1.62,0.61c0.32,0.04,0.62,0.04,0.89,0.02
					c-0.04,0.42-0.09,0.84-0.15,1.25c-0.41-0.12-0.93-0.2-1.5-0.21c-0.83-0.15-1.59-0.13-2.08,0.01l-0.04,0
					c0.33,0.29,1.11,0.6,2.06,0.76c0.57,0.02,1.08-0.04,1.49-0.12c-0.09,0.61-0.19,1.22-0.31,1.81c-0.37-0.27-1.07-0.56-1.92-0.72
					c-0.85-0.17-1.63-0.17-2.12-0.04l-0.04,0c0.33,0.3,1.11,0.62,2.05,0.81c0.8,0.16,1.52,0.16,2.01,0.06
					c-0.06,0.32-0.13,0.64-0.2,0.95c-0.48-0.14-1.06-0.25-1.71-0.31c-1.08-0.09-2.03-0.02-2.53,0.16l-0.04,0.01
					c0.49,0.27,1.41,0.51,2.48,0.6c0.64,0.06,1.22,0.05,1.7,0c-0.12,0.49-0.24,0.98-0.37,1.46c-0.43-0.11-0.92-0.22-1.46-0.29
					c-1.16-0.03-2.18,0.11-2.73,0.32l-0.05,0.01c0.54,0.25,1.55,0.42,2.73,0.45c0.48,0.07,0.93,0.09,1.33,0.1
					c-0.09,0.32-0.18,0.62-0.28,0.93c-0.54-0.23-1.35-0.45-2.27-0.55c-1.16-0.02-2.18,0.11-2.73,0.32l-0.05,0.01
					c0.54,0.24,1.56,0.42,2.73,0.44c0.85,0.1,1.63,0.13,2.22,0.07c-0.16,0.48-0.32,0.96-0.48,1.42c-0.5-0.48-1.57-1.08-2.88-1.11
					c-1.4-0.01-2.56,0.18-3.2,0.42l-0.05,0.01c0.62,0.21,1.86,0.34,3.22,0.34c1.24,0.05,2.18,0.32,2.87,0.46
					c-0.19,0.51-0.38,1-0.58,1.49c-0.6-0.37-1.55-0.76-2.69-0.92c-1.35-0.18-2.52-0.21-3.19-0.1l-0.05,0
					c0.57,0.33,1.76,0.69,3.13,0.87c1.09,0.16,2.03,0.33,2.71,0.38c-0.22,0.54-0.45,1.06-0.68,1.56c-0.67-0.31-1.74-0.63-2.99-0.87
					c-1.41-0.26-2.67-0.35-3.38-0.25h-0.06c0.61,0.35,1.84,0.74,3.3,1.02c1.22,0.23,2.31,0.32,3.05,0.28
					c-0.46,0.98-0.94,1.91-1.42,2.77c-0.49-0.62-1.65-1.5-3.22-1.72c-1.62-0.2-3.01-0.05-3.75,0.17l-0.06,0.01
					c0.73,0.24,2.13,0.39,3.7,0.59c1.46,0.22,2.53,0.73,3.29,1.04c-0.88,1.57-1.78,2.91-2.61,3.98l-0.38,0.53
					C-764.28,330.12-755.25,315.92-759.86,299.08z"/>
				<path class="st1" d="M-769.21,296.12c-5.42-16.38-22.46-20.11-28.83-18.47c6.64-0.17,21.75,4.33,26.61,19.19
					c4.67,14.52-4.53,26.89-10.27,30.58l-0.5,0.39C-776.02,325.71-763.89,312.75-769.21,296.12z"/>
				<path class="st1" d="M-790.02,332c-5.27,0.12-10.69-0.16-15.99,0.04c-2.67,0.11-5.4,0.27-8.22,0.55
					c-2.56,0.84-5.28-0.45-7.93,2.36c-4.9-5.2-12.97-17.51-10.06-32.66c2.65-15.11,14.41-23.88,20.72-27.18l0.57-0.31
					c-6.67,1.32-21.18,9.77-24.3,26.94c-3.16,16.71,7,29.54,13,33.28c-0.2,0.21-0.39,0.44-0.58,0.7c12.06,4.7,22.5,2.7,31.85,3.05
					c4.09-0.27,8.22-0.24,12.3-0.79c1.52-0.21,6.32-0.69,7.54-2.46c0.22-0.31,0.32-0.66,0.28-1.07
					C-771.14,331.92-787.96,331.96-790.02,332z"/>
				<path class="st1" d="M-809.83,267.66l0.15,0.31c-0.25,0.12-0.47,0.24-0.7,0.37c0.12,0,0.31-0.01,0.54-0.03
					c-0.07,0.06-0.16,0.11-0.26,0.16c0.01,0.03,0.04,0.04,0.06,0.07c-0.11,0-0.22-0.02-0.34-0.01c-0.49,0.01-1.05,0.08-1.7,0.31
					c-0.41,0.07-1.05,1.13-0.31,1.71c0.44,0.43,0.68,0.45,1.07,0.7c0.36,0.14,0.72,0.27,1.1,0.4c-0.31,0.08-0.63,0.16-0.99,0.32
					c-0.55,1.06-0.04,1.51,0.68,1.76c0.67,0.24,1.51,0.31,1.92,0.52c2.68,0.59,5.86,0.85,9.26,0.89c3.36,0.03,6.51-0.18,9.2-0.62
					c1.33-0.21,2.55-0.51,3.6-0.9c0.16-0.08,0.36-0.16,0.55-0.27c0.33-0.18,0.64-0.44,0.59-0.87c-0.03-0.04-0.06-0.06-0.08-0.1
					c-0.02-0.24-0.07-0.52-0.2-0.79c-0.2-0.21-0.41-0.37-0.61-0.49c0.04-0.02,0.08-0.03,0.12-0.05c0.44-0.29,1.35-0.52,1.3-1.48
					c-0.24-0.36-0.48-0.47-0.7-0.51c-0.1-0.27-0.25-0.52-0.44-0.77l0.02-0.02c0.05,0.05,0.09,0.12,0.13,0.18l-0.29-0.53
					c-0.02-0.03-0.04-0.08-0.06-0.12c-0.01-0.03-0.02-0.07-0.04-0.11c-1.25-3.27,4.17-6.86,3.03-13.01
					c-0.95-6.06-6.76-12.95-15.04-13.1c-8.17-0.09-14.24,6.52-15.38,12.51C-815.94,260.94-809.07,264.14-809.83,267.66z
					 M-794.83,267.29c-0.03,0.47-0.04,0.97-0.04,1.5c0,0.42,0.01,0.83,0.02,1.21c-0.46,0-0.93-0.01-1.4-0.01
					c0.03-0.44,0.05-0.91,0.05-1.41c0-0.45-0.01-0.86-0.04-1.26C-795.76,267.31-795.29,267.3-794.83,267.29z M-796.92,269.99
					c-0.35,0-0.7,0-1.05-0.01c0.03-0.44,0.05-0.91,0.04-1.43c-0.05-0.41-0.11-0.8-0.18-1.17c0.4-0.02,0.79-0.03,1.18-0.05
					c-0.02,0.4-0.04,0.81-0.04,1.24C-796.97,269.08-796.95,269.55-796.92,269.99z M-798.71,268.59c0.01,0.5,0.04,0.95,0.09,1.39
					c-0.31,0-0.62-0.01-0.93-0.01c-0.31-0.01-0.6-0.01-0.9-0.01c0.03-0.37,0.05-0.75,0.05-1.17c0-0.46-0.03-0.88-0.06-1.28
					c0.55-0.03,1.11-0.07,1.67-0.1C-798.78,267.79-798.76,268.18-798.71,268.59z M-801.12,269.96c-0.51,0-1.02-0.01-1.52-0.02
					c0.09-0.51,0.14-1.11,0.14-1.77c0-0.17-0.01-0.34-0.02-0.5c0.46-0.03,0.93-0.07,1.4-0.1c-0.04,0.39-0.06,0.79-0.06,1.23
					C-801.17,269.21-801.15,269.59-801.12,269.96z M-803.14,269.93c-0.36-0.01-0.72-0.01-1.07-0.02c0.06-0.41,0.11-0.86,0.13-1.36
					c0-0.26-0.03-0.51-0.07-0.75c0.29-0.03,0.59-0.05,0.89-0.07c-0.01,0.15-0.01,0.29-0.01,0.44
					C-803.28,268.83-803.22,269.42-803.14,269.93z M-804.85,268.55c-0.02,0.48,0,0.93,0.03,1.35c-0.52-0.01-1.03-0.02-1.52-0.04
					c0.04-0.33,0.06-0.68,0.06-1.06c0-0.28-0.01-0.56-0.03-0.81c0.46-0.04,0.94-0.08,1.44-0.13
					C-804.86,268.08-804.85,268.31-804.85,268.55z M-807,269.83c-0.35-0.02-0.69-0.03-1.03-0.05c0.17-0.45,0.31-1.03,0.41-1.68
					c0.19-0.02,0.39-0.04,0.59-0.06c-0.02,0.24-0.03,0.49-0.03,0.75C-807.06,269.17-807.04,269.51-807,269.83z M-808.7,268.81
					c0.09-0.08,0.17-0.17,0.26-0.25c-0.04,0.45-0.04,0.86-0.01,1.21c-0.07,0-0.14,0-0.21-0.01c-0.45,0.08-0.99-0.02-1.47-0.12
					C-809.66,269.47-809.15,269.2-808.7,268.81z M-786.43,271.93c-0.02,0-0.04-0.01-0.05-0.01c0.03,0.01,0.05,0.03,0.08,0.04
					c0.02,0.02,0.03,0.04,0.05,0.06c0.11,0.26,0.26,0.48,0.43,0.68c-0.58,0.45-2.96,0.62-4.38,0.71c-2.63,0.16-5.74,0.22-9.05,0.19
					c-3.24-0.04-6.28-0.14-8.84-0.43c-1.12-0.03-2.86-0.54-2.77-0.6c0.28-0.33,0.85-0.55,1.4-0.74c0.09,0.02,0.19,0.06,0.27,0.08
					c2.82,0.73,6.15,1.08,9.7,1.11c1.75,0.02,3.46-0.05,5.06-0.19c0.01,0.03,0.01,0.06,0.02,0.09l0.01,0.07
					c0.01-0.05,0.03-0.11,0.04-0.17c1.6-0.14,3.1-0.35,4.48-0.63c1.13-0.22,2.19-0.52,3.14-0.89
					C-786.74,271.53-786.61,271.74-786.43,271.93z M-786.27,269.02c0.21,0.25,0.36,0.52,0.47,0.79c-0.72,0.21-2.95,0.03-4.41,0.19
					c-1.21,0.02-2.53,0.02-3.91,0.01c0.01-0.39,0.03-0.79,0.03-1.21c0-0.52-0.02-1.02-0.04-1.5c2.23,0.02,4.14,0.17,5.27,0.56
					l1.42,0.35c0.51,0.21,0.89,0.49,1.16,0.8c-0.01,0-0.02,0-0.03-0.01C-786.3,269-786.29,269.01-786.27,269.02z"/>
				<path class="st1" d="M-802.37,278.28l0.51-0.17c-4.92,0.02-15.63,4.17-20.73,14.61c0.05-0.28,0.09-0.56,0.11-0.83
					c-0.02,0.03-0.05,0.06-0.07,0.09c1.22-2.69,2.54-4.91,3.3-6.55c-0.97,0.76-2.28,1.96-3.6,3.54c0.52-0.92,0.98-1.75,1.34-2.5
					c1.15-1.67,2.32-3.02,3.34-4.01c-4.67,1.83-12.18,10.42-12.33,22.24c-0.43,11.49,5.88,20.47,10.36,22.98l0.34,0.29
					c-0.91-1.09-1.95-2.57-2.96-4.35c1.54,1.74,3.08,3.03,4.28,3.82l0.3,0.26c-0.46-0.7-1.02-1.52-1.63-2.46
					c-0.86-1.36-1.91-3.27-2.86-5.61c-0.37-2.12-1.08-4.66-1.69-7.45c0.02-0.15,0.04-0.29,0.06-0.44c2.1,6.99,6.81,12.06,9.91,13.74
					c-4.16-3.93-11.37-14.64-7.76-27.28C-818.96,285.84-808.01,279.89-802.37,278.28z"/>
				<path class="st1" d="M-766.32,328.48c-0.4-0.53-1.48-1.34-2.92-1.7c-1.41-0.3-2.67-0.21-3.33,0l-0.06,0.01
					c0.65,0.25,1.85,0.46,3.2,0.75C-768.09,327.88-767.02,328.32-766.32,328.48z"/>
				<path class="st1" d="M-791.54,325.12c-1.83-0.24-5.39-0.39-9.48-0.39c-4.06,0-7.59,0.15-9.44,0.39
					c1.85,0.23,5.38,0.39,9.44,0.39c3.97,0,7.43-0.15,9.31-0.37L-791.54,325.12z"/>
				<path class="st1" d="M-793.64,327.22c-1.71-0.2-5.04-0.27-8.86-0.18c-3.78,0.09-7.07,0.32-8.79,0.6
					c1.72,0.19,5.03,0.27,8.82,0.18c3.7-0.09,6.92-0.32,8.68-0.58L-793.64,327.22z"/>
			</g>
		</g>
		<path class="st1" d="M-713.79,300.73c-0.16,0.08-0.33,0.18-0.48,0.29c-0.16,0.11-0.3,0.23-0.45,0.36
			c-0.01,0.01-0.02,0.03-0.04,0.04c0.03,0.31-0.12,0.54-0.56,0.62c-0.05,0.08-0.12,0.15-0.16,0.23c-0.1,0.16-0.18,0.34-0.26,0.52
			c-0.47,1.09-0.49,2.27-0.18,3.38c0.06,0.22,0.14,0.44,0.23,0.66c0.28,0.61,0.64,1.18,1.04,1.71c0.14,0.17,0.28,0.34,0.42,0.52
			c0.17,0.2,0.35,0.38,0.52,0.57c0.2-0.01,0.43-0.01,0.71,0.03c0.35,0.29,0.3,0.53-0.03,0.68c0.94,0.94,1.95,1.83,2.87,2.79
			c0.12,0.12,0.24,0.24,0.36,0.37c0.6,0.63,1.2,1.25,1.82,1.87c0.14,0.14,0.28,0.29,0.42,0.43c0.82,0.84,1.62,1.69,2.37,2.57
			c0.62-0.92,1.29-1.8,1.99-2.67c0.12-0.15,0.24-0.29,0.36-0.43c0.53-0.63,1.03-1.28,1.53-1.92c0.1-0.13,0.2-0.26,0.3-0.38
			c0.01-0.01,0.02-0.02,0.03-0.03c-0.02,0-0.04,0-0.06,0.01c-1.69-0.04-1.45-1.46,0.54-1.09c0.08,0.08,0.15,0.16,0.22,0.24
			c0.94-1.09,1.93-2.14,2.71-3.3c0.12-0.17,0.23-0.35,0.34-0.53c0.33-0.54,0.6-1.11,0.78-1.73c0.05-0.22,0.11-0.44,0.13-0.66
			c0.14-1.12-0.05-2.3-0.69-3.36c-0.09-0.17-0.21-0.35-0.33-0.51c-0.25-0.32-0.55-0.62-0.9-0.87c-0.16-0.13-0.33-0.25-0.5-0.35
			c-0.18-0.11-0.35-0.2-0.53-0.28c-1.44-0.64-3.05-0.52-4.38,0.14c-1.31,0.65-2.1,1.91-2.63,3.22c-0.73-1.27-1.72-2.49-3.1-3.1
			C-710.82,300.13-712.45,300.04-713.79,300.73z M-705.57,306.03c0.65,0.07,1.3,0.14,1.12,0.55c0.49-0.17,0.17-0.74,0.82-0.83
			c0.61,0.44,1.4,1.12,2.51,0.99c-0.68,0.5,1.23,0.87,1.13,1.54c-1.61,0.12-3.11,0.1-4.99-0.48c0.39-0.87-0.56-0.28-1.13-1.04
			C-706.02,306.46-705.78,306.25-705.57,306.03z M-708.31,308.01c-0.24,0.21-0.77,0.28-0.55,0.72c-0.46-0.02-0.93-0.04-1.39-0.07
			c-0.3-0.37-0.63-0.74-0.57-1.27C-709.2,307.29-709.3,307.86-708.31,308.01z"/>
		<path class="st2" d="M-895.79,300.73c-0.16,0.08-0.33,0.18-0.48,0.29c-0.16,0.11-0.3,0.23-0.45,0.36
			c-0.01,0.01-0.02,0.03-0.04,0.04c0.03,0.31-0.12,0.54-0.56,0.62c-0.05,0.08-0.12,0.15-0.16,0.23c-0.1,0.16-0.18,0.34-0.26,0.52
			c-0.47,1.09-0.49,2.27-0.18,3.38c0.06,0.22,0.14,0.44,0.23,0.66c0.28,0.61,0.64,1.18,1.04,1.71c0.14,0.17,0.28,0.34,0.42,0.52
			c0.17,0.2,0.35,0.38,0.52,0.57c0.2-0.01,0.43-0.01,0.71,0.03c0.35,0.29,0.3,0.53-0.03,0.68c0.94,0.94,1.95,1.83,2.87,2.79
			c0.12,0.12,0.24,0.24,0.36,0.37c0.6,0.63,1.2,1.25,1.82,1.87c0.14,0.14,0.28,0.29,0.42,0.43c0.82,0.84,1.62,1.69,2.37,2.57
			c0.62-0.92,1.29-1.8,1.99-2.67c0.12-0.15,0.24-0.29,0.36-0.43c0.53-0.63,1.03-1.28,1.53-1.92c0.1-0.13,0.2-0.26,0.3-0.38
			c0.01-0.01,0.02-0.02,0.03-0.03c-0.02,0-0.04,0-0.06,0.01c-1.69-0.04-1.45-1.46,0.54-1.09c0.08,0.08,0.15,0.16,0.22,0.24
			c0.94-1.09,1.93-2.14,2.71-3.3c0.12-0.17,0.23-0.35,0.34-0.53c0.33-0.54,0.6-1.11,0.78-1.73c0.05-0.22,0.11-0.44,0.13-0.66
			c0.14-1.12-0.05-2.3-0.69-3.36c-0.09-0.17-0.21-0.35-0.33-0.51c-0.25-0.32-0.55-0.62-0.9-0.87c-0.16-0.13-0.33-0.25-0.5-0.35
			c-0.18-0.11-0.35-0.2-0.53-0.28c-1.44-0.64-3.05-0.52-4.38,0.14c-1.31,0.65-2.1,1.91-2.63,3.22c-0.73-1.27-1.72-2.49-3.1-3.1
			C-892.82,300.13-894.45,300.04-895.79,300.73z M-887.57,306.03c0.65,0.07,1.3,0.14,1.12,0.55c0.49-0.17,0.17-0.74,0.82-0.83
			c0.61,0.44,1.4,1.12,2.51,0.99c-0.68,0.5,1.23,0.87,1.13,1.54c-1.61,0.12-3.11,0.1-4.99-0.48c0.39-0.87-0.56-0.28-1.13-1.04
			C-888.02,306.46-887.78,306.25-887.57,306.03z M-890.31,308.01c-0.24,0.21-0.77,0.28-0.55,0.72c-0.46-0.02-0.93-0.04-1.39-0.07
			c-0.3-0.37-0.63-0.74-0.57-1.27C-891.2,307.29-891.3,307.86-890.31,308.01z"/>
	</g>
	<text transform="matrix(0.9761 0 0 1 -656.6849 410.4286)" style="font-family:'ShreeDev0714'; font-size:9.5254px;">PERFUMES</text>
	<g>
		<g>
			<path class="st1" d="M-483.72,305.93c-1.96-7.37-8.51-10.71-11.53-11.08c2.85,1.19,8.46,4.73,10.23,11.43
				c0.02,0.08,0.04,0.15,0.06,0.23c-0.03,0.03-0.05,0.08-0.05,0.13c-0.01,0-0.02-0.01-0.04-0.02c-0.13-0.05-0.28-0.03-0.39,0.03
				l-0.01,0c0.02,0.12,0.15,0.24,0.32,0.3c0.1,0.04,0.2,0.02,0.28-0.02c0.02,0.1,0.04,0.21,0.07,0.31
				c-0.09-0.01-0.19-0.02-0.29-0.02c-0.31,0-0.58,0.06-0.73,0.16l-0.01,0c0.14,0.1,0.42,0.17,0.74,0.17c0.13,0,0.24-0.01,0.35-0.03
				c0.03,0.15,0.05,0.3,0.08,0.46c-0.11-0.01-0.22-0.02-0.34-0.02c-0.35,0-0.65,0.07-0.82,0.16l-0.01,0.01
				c0.16,0.1,0.47,0.17,0.83,0.17c0.14,0,0.26-0.01,0.38-0.03c0.02,0.15,0.04,0.3,0.06,0.44c-0.08-0.01-0.17-0.01-0.26-0.01
				c-0.35,0-0.65,0.07-0.82,0.16l-0.02,0c0.16,0.1,0.47,0.17,0.83,0.17c0.1,0,0.2-0.01,0.29-0.02c0.02,0.21,0.04,0.41,0.05,0.62
				c-0.13-0.02-0.27-0.04-0.42-0.04c-0.37-0.07-0.7-0.06-0.91,0.01l-0.02,0c0.14,0.13,0.49,0.26,0.91,0.33
				c0.17,0,0.32-0.01,0.46-0.02c0.01,0.17,0.01,0.33,0.01,0.5c-0.05-0.02-0.09-0.03-0.14-0.05c-0.25-0.07-0.49-0.07-0.67-0.02
				l-0.01,0c0.08,0.13,0.31,0.27,0.61,0.35c0.07,0.02,0.14,0.03,0.21,0.04c0,0.18-0.01,0.36-0.01,0.54
				c-0.08-0.01-0.16-0.02-0.24-0.02c-0.29-0.06-0.56-0.06-0.74,0.01l-0.01,0c0.11,0.13,0.38,0.26,0.72,0.33c0.09,0,0.18,0,0.26-0.01
				c-0.01,0.14-0.02,0.28-0.03,0.43c-0.11-0.03-0.23-0.06-0.36-0.08c-0.31-0.04-0.61-0.02-0.75,0.06l-0.01,0
				c0.15,0.12,0.4,0.23,0.71,0.27c0.14,0.02,0.27,0.02,0.39,0.01c-0.02,0.19-0.04,0.37-0.07,0.55c-0.18-0.05-0.41-0.09-0.66-0.09
				c-0.37-0.07-0.7-0.06-0.91,0.01l-0.02,0c0.14,0.13,0.49,0.26,0.91,0.33c0.25,0.01,0.47-0.02,0.66-0.05
				c-0.04,0.27-0.09,0.54-0.14,0.8c-0.16-0.12-0.47-0.24-0.85-0.32c-0.37-0.07-0.72-0.07-0.93-0.02l-0.02,0
				c0.14,0.13,0.49,0.27,0.9,0.36c0.35,0.07,0.67,0.07,0.88,0.03c-0.03,0.14-0.06,0.28-0.09,0.42c-0.21-0.06-0.47-0.11-0.75-0.13
				c-0.47-0.04-0.89-0.01-1.11,0.07l-0.02,0c0.22,0.12,0.62,0.22,1.09,0.26c0.28,0.02,0.54,0.02,0.75,0
				c-0.05,0.22-0.11,0.43-0.16,0.64c-0.19-0.05-0.41-0.1-0.64-0.13c-0.51-0.01-0.96,0.05-1.2,0.14l-0.02,0
				c0.24,0.11,0.68,0.19,1.2,0.2c0.21,0.03,0.41,0.04,0.59,0.04c-0.04,0.14-0.08,0.27-0.12,0.41c-0.24-0.1-0.59-0.2-1-0.24
				c-0.51-0.01-0.96,0.05-1.2,0.14l-0.02,0c0.24,0.11,0.68,0.18,1.2,0.19c0.37,0.04,0.72,0.06,0.97,0.03
				c-0.07,0.21-0.14,0.42-0.21,0.63c-0.22-0.21-0.69-0.47-1.27-0.49c-0.61,0-1.12,0.08-1.41,0.19l-0.02,0
				c0.27,0.09,0.82,0.15,1.42,0.15c0.54,0.02,0.96,0.14,1.26,0.2c-0.08,0.22-0.17,0.44-0.25,0.65c-0.26-0.16-0.68-0.33-1.18-0.41
				c-0.59-0.08-1.11-0.09-1.4-0.04l-0.02,0c0.25,0.15,0.77,0.3,1.38,0.38c0.48,0.07,0.89,0.14,1.19,0.17
				c-0.1,0.24-0.2,0.46-0.3,0.69c-0.29-0.14-0.76-0.28-1.31-0.38c-0.62-0.12-1.17-0.15-1.49-0.11h-0.03
				c0.27,0.15,0.81,0.33,1.45,0.45c0.54,0.1,1.02,0.14,1.34,0.12c-0.2,0.43-0.41,0.84-0.62,1.22c-0.21-0.27-0.72-0.66-1.42-0.76
				c-0.71-0.09-1.32-0.02-1.65,0.07l-0.03,0c0.32,0.11,0.94,0.17,1.63,0.26c0.64,0.1,1.11,0.32,1.45,0.46
				c-0.39,0.69-0.78,1.28-1.15,1.75l-0.17,0.23C-485.66,319.58-481.7,313.34-483.72,305.93z"/>
			<path class="st1" d="M-487.83,304.63c-2.38-7.2-9.88-8.84-12.67-8.12c2.92-0.08,9.56,1.9,11.7,8.44
				c2.05,6.38-1.99,11.82-4.52,13.45l-0.22,0.17C-490.83,317.64-485.49,311.94-487.83,304.63z"/>
			<path class="st1" d="M-496.98,320.41c-2.32,0.05-4.7-0.07-7.03,0.02c-1.17,0.05-2.38,0.12-3.61,0.24
				c-1.13,0.37-2.32-0.2-3.48,1.04c-2.15-2.29-5.7-7.7-4.42-14.36c1.16-6.64,6.34-10.5,9.11-11.95l0.25-0.14
				c-2.93,0.58-9.31,4.29-10.68,11.84c-1.39,7.35,3.08,12.99,5.71,14.63c-0.09,0.09-0.17,0.19-0.26,0.31c5.3,2.06,9.89,1.19,14,1.34
				c1.8-0.12,3.62-0.11,5.41-0.35c0.67-0.09,2.78-0.3,3.31-1.08c0.1-0.14,0.14-0.29,0.12-0.47
				C-488.68,320.37-496.08,320.39-496.98,320.41z"/>
			<path class="st1" d="M-505.69,292.12l0.07,0.14c-0.11,0.05-0.21,0.1-0.31,0.16c0.05,0,0.14-0.01,0.24-0.01
				c-0.03,0.02-0.07,0.05-0.11,0.07c0.01,0.01,0.02,0.02,0.03,0.03c-0.05,0-0.1-0.01-0.15-0.01c-0.22,0-0.46,0.03-0.75,0.14
				c-0.18,0.03-0.46,0.5-0.13,0.75c0.2,0.19,0.3,0.2,0.47,0.31c0.16,0.06,0.32,0.12,0.48,0.17c-0.14,0.03-0.28,0.07-0.44,0.14
				c-0.24,0.46-0.02,0.66,0.3,0.78c0.29,0.1,0.66,0.14,0.84,0.23c1.18,0.26,2.58,0.37,4.07,0.39c1.48,0.01,2.86-0.08,4.04-0.27
				c0.59-0.09,1.12-0.22,1.58-0.39c0.07-0.03,0.16-0.07,0.24-0.12c0.15-0.08,0.28-0.19,0.26-0.38c-0.01-0.02-0.02-0.03-0.04-0.04
				c-0.01-0.11-0.03-0.23-0.09-0.35c-0.09-0.09-0.18-0.16-0.27-0.21c0.02-0.01,0.03-0.01,0.05-0.02c0.19-0.13,0.6-0.23,0.57-0.65
				c-0.11-0.16-0.21-0.21-0.31-0.22c-0.04-0.12-0.11-0.23-0.19-0.34l0.01-0.01c0.02,0.02,0.04,0.05,0.06,0.08l-0.13-0.23
				c-0.01-0.01-0.02-0.03-0.03-0.05c0-0.01-0.01-0.03-0.02-0.05c-0.55-1.44,1.83-3.02,1.33-5.72c-0.42-2.66-2.97-5.69-6.61-5.76
				c-3.59-0.04-6.26,2.87-6.76,5.5C-508.38,289.16-505.36,290.57-505.69,292.12z M-499.1,291.96c-0.01,0.21-0.02,0.43-0.02,0.66
				c0,0.18,0,0.36,0.01,0.53c-0.2,0-0.41,0-0.62,0c0.01-0.2,0.02-0.4,0.02-0.62c0-0.2-0.01-0.38-0.02-0.56
				C-499.51,291.96-499.3,291.96-499.1,291.96z M-500.02,293.14c-0.15,0-0.31,0-0.46,0c0.01-0.2,0.02-0.4,0.02-0.63
				c-0.02-0.18-0.05-0.35-0.08-0.51c0.17-0.01,0.35-0.01,0.52-0.02c-0.01,0.17-0.02,0.36-0.02,0.55
				C-500.04,292.74-500.03,292.95-500.02,293.14z M-500.8,292.53c0,0.22,0.02,0.42,0.04,0.61c-0.14,0-0.27,0-0.41,0
				c-0.14,0-0.26,0-0.4,0c0.01-0.16,0.02-0.33,0.02-0.51c0-0.2-0.01-0.39-0.03-0.56c0.24-0.02,0.49-0.03,0.73-0.04
				C-500.83,292.18-500.82,292.35-500.8,292.53z M-501.86,293.13c-0.23,0-0.45-0.01-0.67-0.01c0.04-0.22,0.06-0.49,0.06-0.78
				c0-0.08,0-0.15-0.01-0.22c0.2-0.02,0.41-0.03,0.62-0.04c-0.02,0.17-0.03,0.35-0.03,0.54
				C-501.89,292.8-501.88,292.97-501.86,293.13z M-502.75,293.12c-0.16,0-0.32,0-0.47-0.01c0.03-0.18,0.05-0.38,0.06-0.6
				c0-0.12-0.01-0.23-0.03-0.33c0.13-0.01,0.26-0.02,0.39-0.03c0,0.06-0.01,0.13-0.01,0.19
				C-502.81,292.63-502.79,292.89-502.75,293.12z M-503.5,292.51c-0.01,0.21,0,0.41,0.01,0.59c-0.23-0.01-0.45-0.01-0.67-0.02
				c0.02-0.15,0.03-0.3,0.03-0.47c0-0.13,0-0.24-0.01-0.36c0.2-0.02,0.41-0.04,0.63-0.06C-503.51,292.3-503.5,292.4-503.5,292.51z
				 M-504.45,293.07c-0.15-0.01-0.3-0.01-0.45-0.02c0.07-0.2,0.14-0.45,0.18-0.74c0.08-0.01,0.17-0.02,0.26-0.02
				c-0.01,0.11-0.01,0.22-0.01,0.33C-504.47,292.78-504.46,292.93-504.45,293.07z M-505.19,292.62c0.04-0.03,0.07-0.07,0.11-0.11
				c-0.02,0.2-0.02,0.38-0.01,0.53c-0.03,0-0.06,0-0.09,0c-0.2,0.04-0.43-0.01-0.65-0.05C-505.62,292.91-505.39,292.8-505.19,292.62
				z M-495.41,294c-0.01,0-0.02,0-0.02,0c0.01,0.01,0.02,0.01,0.04,0.02c0.01,0.01,0.01,0.02,0.02,0.03
				c0.05,0.12,0.11,0.21,0.19,0.3c-0.26,0.2-1.3,0.27-1.93,0.31c-1.15,0.07-2.52,0.09-3.98,0.09c-1.42-0.02-2.76-0.06-3.89-0.19
				c-0.49-0.01-1.26-0.24-1.22-0.26c0.12-0.14,0.37-0.24,0.62-0.32c0.04,0.01,0.08,0.02,0.12,0.03c1.24,0.32,2.7,0.47,4.26,0.49
				c0.77,0.01,1.52-0.02,2.23-0.08c0,0.01,0.01,0.03,0.01,0.04l0.01,0.03c0.01-0.02,0.01-0.05,0.02-0.07
				c0.7-0.06,1.36-0.15,1.97-0.28c0.5-0.09,0.96-0.23,1.38-0.39C-495.54,293.82-495.48,293.91-495.41,294z M-495.34,292.72
				c0.09,0.11,0.16,0.23,0.21,0.35c-0.32,0.09-1.29,0.02-1.94,0.08c-0.53,0.01-1.11,0.01-1.72,0c0.01-0.17,0.01-0.35,0.01-0.53
				c0-0.23-0.01-0.45-0.02-0.66c0.98,0.01,1.82,0.07,2.32,0.25l0.62,0.15C-495.63,292.45-495.46,292.57-495.34,292.72
				c-0.01-0.01-0.01-0.01-0.02-0.01C-495.35,292.71-495.34,292.71-495.34,292.72z"/>
			<path class="st1" d="M-502.41,296.79l0.22-0.08c-2.16,0.01-6.87,1.83-9.12,6.42c0.02-0.12,0.04-0.25,0.05-0.37
				c-0.01,0.01-0.02,0.03-0.03,0.04c0.54-1.18,1.12-2.16,1.45-2.88c-0.43,0.33-1,0.86-1.58,1.56c0.23-0.41,0.43-0.77,0.59-1.1
				c0.51-0.73,1.02-1.33,1.47-1.76c-2.05,0.81-5.35,4.58-5.42,9.78c-0.19,5.05,2.58,9,4.55,10.11l0.15,0.13
				c-0.4-0.48-0.86-1.13-1.3-1.91c0.68,0.76,1.35,1.33,1.88,1.68l0.13,0.12c-0.2-0.31-0.45-0.67-0.72-1.08
				c-0.38-0.6-0.84-1.44-1.26-2.47c-0.16-0.93-0.47-2.05-0.74-3.28c0.01-0.07,0.02-0.13,0.03-0.19c0.92,3.08,2.99,5.3,4.36,6.04
				c-1.83-1.73-5-6.44-3.41-11.99C-509.71,300.11-504.89,297.5-502.41,296.79z"/>
			<path class="st1" d="M-486.56,318.86c-0.18-0.23-0.65-0.59-1.28-0.75c-0.62-0.13-1.17-0.09-1.46,0l-0.03,0
				c0.28,0.11,0.81,0.2,1.41,0.33C-487.34,318.6-486.87,318.79-486.56,318.86z"/>
			<path class="st1" d="M-497.65,317.39c-0.81-0.1-2.37-0.17-4.17-0.17c-1.78,0-3.34,0.07-4.15,0.17c0.81,0.1,2.37,0.17,4.15,0.17
				c1.74,0,3.27-0.07,4.09-0.16L-497.65,317.39z"/>
			<path class="st1" d="M-498.58,318.31c-0.75-0.09-2.21-0.12-3.9-0.08c-1.66,0.04-3.11,0.14-3.87,0.26
				c0.76,0.08,2.21,0.12,3.88,0.08c1.63-0.04,3.04-0.14,3.82-0.26L-498.58,318.31z"/>
		</g>
	</g>
	<line class="st3" x1="-509.02" y1="414.63" x2="-409.66" y2="414.63"/>
	<line class="st3" x1="-782.96" y1="232.78" x2="-614.28" y2="232.78"/>
	<g>
		<g>
			<path class="st1" d="M21.63,39.56c0-7.71-2.05-10.42-5.13-10.42c-5.3,0-8.81,4.64-8.81,21.81c0,0,0,0.09,0,13.75
				c0,0-0.85,1.23-3.25,1.23C2.14,65.93,0,64.36,0,60.59V27.3c0,0,0.86-1.23,3.25-1.23c2.31,0,4.45,1.58,4.45,5.34
				c1.88-3.42,4.96-5.34,9.83-5.34c5.04,0,9.06,2.36,10.94,7.1c1.88-4.56,5.3-7.1,10.86-7.1c7.18,0,12.14,4.73,12.14,13.93v12.44
				c0,6.83,2.31,10.07,5.73,10.07c3.85,0,8.04-3.59,8.04-17.08c0,0,0.09-0.53,1.28-0.53c0.68,0,1.54,0.88,1.54,4.64
				c0,9.72-4.27,16.38-11.88,16.38c-8.63,0-12.74-6.13-12.74-16.12V39.56c0-7.71-2.05-10.42-5.13-10.42
				c-4.45,0-8.72,4.56-8.72,21.99v13.58c0,0-0.85,1.23-3.25,1.23c-2.31,0-4.7-1.58-4.7-5.34V39.56z"/>
			<path class="st1" d="M83.19,65.93c-9.4,0-17.44-6.92-17.44-20.06c0-12.7,7.01-19.8,17.01-19.8c9.49,0,17.01,6.75,17.01,19.8
				C99.78,56.47,93.79,65.93,83.19,65.93z M83.19,62.52c4.53,0,6.84-2.28,7.78-7.62c-7.61-1.66-14.28-7.71-17.01-13.93
				c-0.09,1.49-0.09,3.15-0.09,4.91C73.87,57.79,76.61,62.52,83.19,62.52z M77.04,34.05c0,7.62,6.75,15.33,14.45,17.52
				c0.09-1.66,0.17-3.59,0.17-5.69c0-11.83-1.88-16.38-8.98-16.38C79.77,29.49,77.04,30.98,77.04,34.05z"/>
			<path class="st1" d="M123.55,65.93c-9.4,0-17.44-6.92-17.44-20.06c0-12.7,7.01-19.8,17.01-19.8c9.49,0,17.01,6.75,17.01,19.8
				C140.13,56.47,134.15,65.93,123.55,65.93z M123.55,62.52c4.53,0,6.84-2.28,7.78-7.62c-7.61-1.66-14.28-7.71-17.01-13.93
				c-0.09,1.49-0.09,3.15-0.09,4.91C114.23,57.79,116.97,62.52,123.55,62.52z M117.39,34.05c0,7.62,6.75,15.33,14.45,17.52
				c0.09-1.66,0.17-3.59,0.17-5.69c0-11.83-1.88-16.38-8.98-16.38C120.13,29.49,117.39,30.98,117.39,34.05z"/>
			<path class="st1" d="M192.29,44.91c0.68,0,1.54,0.88,1.54,4.64c0,9.72-4.27,16.38-11.88,16.38c-8.63,0-12.74-6.13-12.74-16.12
				V39.56c0-7.71-2.05-10.42-5.13-10.42c-5.22,0-10.34,4.47-10.34,20.59v14.98c0,0-0.86,1.23-3.25,1.23c-2.31,0-4.45-1.58-4.45-5.34
				V27.3c0,0,0.86-1.23,3.25-1.23c2.31,0,4.45,1.4,4.45,6.57c2.31-4.2,5.98-6.57,11.37-6.57c7.18,0,12.14,4.73,12.14,13.93v12.44
				c0,6.83,2.31,10.07,5.73,10.07c3.85,0,8.04-3.59,8.04-17.08C191,45.43,191.09,44.91,192.29,44.91z"/>
		</g>
		<path class="st1" d="M207.03,21.2l0.12,0.25c-0.2,0.1-0.38,0.19-0.57,0.3c0.1,0,0.25-0.01,0.44-0.03
			c-0.06,0.04-0.13,0.09-0.21,0.13c0.01,0.02,0.03,0.04,0.05,0.05c-0.09,0-0.18-0.01-0.28-0.01c-0.4,0.01-0.85,0.06-1.38,0.25
			c-0.33,0.05-0.85,0.92-0.25,1.39c0.36,0.35,0.56,0.37,0.87,0.57c0.29,0.11,0.59,0.22,0.89,0.32c-0.25,0.06-0.52,0.13-0.81,0.26
			c-0.45,0.86-0.04,1.23,0.55,1.44c0.54,0.19,1.23,0.26,1.56,0.42c2.18,0.48,4.77,0.69,7.54,0.73c2.73,0.03,5.3-0.15,7.48-0.51
			c1.09-0.17,2.08-0.41,2.93-0.73c0.13-0.06,0.29-0.13,0.45-0.22c0.27-0.15,0.52-0.36,0.48-0.71c-0.02-0.03-0.05-0.05-0.07-0.08
			c-0.01-0.2-0.06-0.43-0.17-0.64c-0.16-0.17-0.33-0.3-0.49-0.4c0.03-0.01,0.06-0.02,0.09-0.04c0.36-0.24,1.1-0.42,1.06-1.2
			c-0.2-0.29-0.39-0.38-0.57-0.42c-0.08-0.22-0.2-0.43-0.36-0.63l0.01-0.02c0.04,0.04,0.07,0.1,0.11,0.15l-0.24-0.43
			c-0.02-0.03-0.04-0.06-0.05-0.1c-0.01-0.03-0.02-0.05-0.04-0.09c-1.02-2.66,3.39-5.58,2.46-10.59
			c-0.77-4.93-5.5-10.54-12.24-10.66c-6.65-0.07-11.59,5.31-12.51,10.18C202.06,15.74,207.65,18.34,207.03,21.2z M219.23,20.91
			c-0.02,0.39-0.03,0.79-0.03,1.22c0,0.34,0.01,0.67,0.02,0.99c-0.37,0-0.75-0.01-1.14-0.01c0.02-0.36,0.04-0.74,0.04-1.15
			c0-0.36-0.01-0.7-0.03-1.03C218.48,20.92,218.86,20.91,219.23,20.91z M217.53,23.1c-0.28,0-0.57,0-0.86,0
			c0.03-0.36,0.04-0.74,0.03-1.16c-0.04-0.33-0.09-0.65-0.15-0.95c0.32-0.02,0.64-0.03,0.96-0.04c-0.02,0.32-0.03,0.66-0.03,1.01
			C217.49,22.36,217.51,22.74,217.53,23.1z M216.08,21.97c0.01,0.4,0.04,0.78,0.07,1.13c-0.25,0-0.5-0.01-0.76-0.01
			c-0.25,0-0.49,0-0.74-0.01c0.02-0.3,0.04-0.61,0.04-0.95c0-0.37-0.02-0.72-0.05-1.04c0.45-0.03,0.9-0.06,1.36-0.08
			C216.02,21.31,216.04,21.63,216.08,21.97z M214.11,23.07c-0.42,0-0.83-0.01-1.23-0.01c0.07-0.41,0.11-0.9,0.11-1.44
			c0-0.14-0.01-0.27-0.01-0.41c0.38-0.03,0.76-0.06,1.14-0.08c-0.03,0.31-0.05,0.65-0.05,1C214.07,22.47,214.09,22.78,214.11,23.07z
			 M212.47,23.05c-0.29,0-0.59-0.01-0.87-0.01c0.05-0.33,0.09-0.7,0.1-1.11c0-0.21-0.02-0.42-0.06-0.61
			c0.24-0.02,0.48-0.04,0.72-0.06c0,0.12-0.01,0.24-0.01,0.36C212.36,22.15,212.4,22.64,212.47,23.05z M211.08,21.93
			c-0.01,0.39,0,0.76,0.03,1.1c-0.42-0.01-0.84-0.02-1.24-0.03c0.03-0.27,0.05-0.56,0.05-0.86c0-0.23-0.01-0.45-0.02-0.66
			c0.37-0.03,0.76-0.07,1.17-0.11C211.07,21.54,211.08,21.73,211.08,21.93z M209.33,22.97c-0.29-0.01-0.56-0.02-0.84-0.04
			c0.14-0.37,0.25-0.84,0.34-1.37c0.15-0.02,0.31-0.03,0.48-0.05c-0.01,0.2-0.02,0.4-0.02,0.61
			C209.28,22.43,209.3,22.71,209.33,22.97z M207.95,22.14c0.08-0.06,0.14-0.14,0.21-0.21c-0.03,0.37-0.03,0.7-0.01,0.99
			c-0.06,0-0.12,0-0.17-0.01c-0.37,0.07-0.8-0.02-1.2-0.1C207.16,22.68,207.58,22.46,207.95,22.14z M226.06,24.68
			c-0.02,0-0.03,0-0.04-0.01c0.03,0.01,0.04,0.02,0.07,0.04c0.01,0.01,0.03,0.03,0.04,0.05c0.09,0.21,0.21,0.39,0.35,0.56
			c-0.47,0.36-2.41,0.51-3.56,0.58c-2.14,0.13-4.67,0.18-7.36,0.16c-2.63-0.03-5.11-0.11-7.19-0.35c-0.91-0.02-2.33-0.44-2.25-0.49
			c0.23-0.26,0.69-0.45,1.14-0.6c0.07,0.02,0.15,0.05,0.22,0.06c2.29,0.59,5,0.88,7.89,0.9c1.43,0.01,2.81-0.04,4.12-0.15
			c0.01,0.02,0.01,0.05,0.02,0.07l0.01,0.06c0.01-0.04,0.02-0.09,0.03-0.14c1.3-0.11,2.52-0.29,3.65-0.52
			c0.92-0.18,1.78-0.42,2.55-0.72C225.82,24.35,225.92,24.52,226.06,24.68z M226.2,22.31c0.17,0.21,0.3,0.42,0.38,0.64
			c-0.59,0.17-2.4,0.03-3.59,0.15c-0.99,0.01-2.06,0.01-3.18,0.01c0.01-0.32,0.02-0.64,0.02-0.99c0-0.42-0.01-0.83-0.03-1.22
			c1.82,0.01,3.37,0.14,4.28,0.45l1.16,0.28c0.42,0.17,0.72,0.4,0.94,0.65c-0.01,0-0.01,0-0.02-0.01
			C226.17,22.3,226.18,22.3,226.2,22.31z"/>
		<path class="st2" d="M207.72,37.11c-0.25,0.13-0.51,0.28-0.75,0.46c-0.24,0.17-0.47,0.36-0.7,0.57c-0.02,0.02-0.04,0.04-0.07,0.06
			c0.04,0.49-0.19,0.84-0.88,0.98c-0.09,0.12-0.18,0.23-0.26,0.36c-0.16,0.25-0.28,0.53-0.4,0.8c-0.73,1.7-0.77,3.54-0.28,5.27
			c0.09,0.34,0.22,0.69,0.36,1.03c0.44,0.96,1,1.84,1.63,2.67c0.21,0.27,0.43,0.53,0.66,0.81c0.26,0.31,0.54,0.59,0.81,0.89
			c0.31-0.01,0.66-0.01,1.1,0.04c0.55,0.46,0.47,0.83-0.05,1.06c1.47,1.46,3.04,2.86,4.48,4.37c0.19,0.19,0.37,0.38,0.56,0.58
			c0.94,0.98,1.87,1.96,2.84,2.92c0.21,0.22,0.44,0.45,0.66,0.67c1.28,1.31,2.53,2.64,3.69,4.02c0.96-1.44,2.02-2.81,3.11-4.17
			c0.18-0.23,0.37-0.46,0.56-0.68c0.82-0.99,1.6-2,2.39-2.99c0.15-0.2,0.31-0.4,0.47-0.6c0.01-0.02,0.03-0.04,0.04-0.05
			c-0.04,0-0.06,0.01-0.09,0.01c-2.64-0.07-2.27-2.28,0.85-1.7c0.13,0.12,0.24,0.25,0.34,0.38c1.46-1.7,3.01-3.34,4.24-5.15
			c0.19-0.27,0.36-0.54,0.53-0.82c0.51-0.84,0.93-1.73,1.22-2.7c0.09-0.34,0.16-0.68,0.2-1.04c0.22-1.75-0.08-3.58-1.08-5.26
			c-0.15-0.27-0.32-0.54-0.52-0.79c-0.39-0.51-0.86-0.96-1.41-1.36c-0.25-0.2-0.52-0.38-0.78-0.55c-0.27-0.17-0.54-0.32-0.82-0.44
			c-2.24-1.01-4.76-0.8-6.85,0.23c-2.04,1.02-3.28,2.99-4.11,5.02c-1.14-1.99-2.68-3.89-4.84-4.84
			C212.35,36.18,209.81,36.04,207.72,37.11z M220.56,45.39c1.01,0.11,2.03,0.22,1.75,0.86c0.76-0.27,0.27-1.15,1.28-1.3
			c0.96,0.69,2.19,1.74,3.92,1.54c-1.06,0.78,1.92,1.36,1.76,2.4c-2.51,0.2-4.86,0.15-7.8-0.75c0.61-1.36-0.88-0.44-1.76-1.63
			C219.85,46.06,220.22,45.74,220.56,45.39z M216.27,48.48c-0.38,0.32-1.2,0.43-0.85,1.12c-0.72-0.03-1.44-0.07-2.17-0.1
			c-0.48-0.59-0.98-1.16-0.89-1.98C214.88,47.36,214.74,48.26,216.27,48.48z"/>
		<path class="st1" d="M227.99,68.38c-4.29,0.1-8.7-0.13-13.01,0.04c-2.17,0.09-4.4,0.22-6.69,0.45c-2.08,0.68-4.29-0.37-6.45,1.92
			c-3.99-4.23-10.56-14.25-8.18-26.57c2.16-12.29,11.72-19.43,16.86-22.12l0.46-0.25c-5.43,1.08-17.23,7.95-19.77,21.92
			c-2.58,13.6,5.69,24.04,10.58,27.08c-0.16,0.17-0.32,0.36-0.47,0.57c9.81,3.82,18.31,2.2,25.92,2.48
			c3.33-0.22,6.69-0.2,10.01-0.64c1.24-0.17,5.14-0.56,6.13-2c0.18-0.25,0.26-0.54,0.22-0.87
			C243.36,68.31,229.67,68.34,227.99,68.38z"/>
		<g>
			<path class="st2" d="M287.97,45.17c0.68,0,1.54,0.88,1.54,4.64c0,9.72-4.27,16.38-11.88,16.38c-5.9,0-9.66-2.8-11.46-7.8
				c-2.05,4.56-5.9,7.8-10.86,7.8c-9.4,0-14.96-5.78-14.96-20.06s7.52-19.8,17.01-19.8c4.36,0,6.93,1.05,8.38,2.54
				c0.77-1.75,2.31-2.54,3.93-2.54c2.39,0,3.25,1.23,3.25,1.23V52.7c0,6.83,2.31,10.07,5.73,10.07c4.7,0,8.04-4.47,8.04-17.08
				C286.69,45.7,286.77,45.17,287.97,45.17z M265.14,50.95v-12c0-5.78-3.5-9.2-7.01-9.2c-5.64,0-9.66,1.75-9.66,16.38
				c0,14.63,3.68,16.64,7.86,16.64C259.24,62.78,265.14,58.75,265.14,50.95z"/>
			<path class="st2" d="M294.64,64.97c0,0-0.85,1.23-3.25,1.23c-2.31,0-4.45-1.58-4.45-5.34V27.56c0,0,0.86-1.23,3.25-1.23
				c2.31,0,4.45,1.58,4.45,5.34v6.66c2.22-5.69,5.9-10.86,11.8-10.86c7.78,0,10.34,5.34,10.34,9.9c0,3.07-2.22,4.82-4.1,4.82
				c-2.05,0-2.57-1.05-2.57-1.05s0.51-1.31,0.51-3.24c0-3.94-2.48-7.01-5.56-7.01c-5.98,0-10.43,14.63-10.43,20.15V64.97z"/>
			<path class="st2" d="M337.99,66.19c-9.4,0-17.44-6.92-17.44-20.06c0-12.7,7.01-19.8,17.01-19.8c9.49,0,17.01,6.75,17.01,19.8
				C354.57,56.73,348.59,66.19,337.99,66.19z M337.99,62.78c4.53,0,6.84-2.28,7.78-7.62c-7.61-1.66-14.28-7.71-17.01-13.93
				c-0.09,1.49-0.09,3.15-0.09,4.91C328.67,58.05,331.41,62.78,337.99,62.78z M331.83,34.31c0,7.62,6.75,15.33,14.45,17.52
				c0.09-1.66,0.17-3.59,0.17-5.69c0-11.83-1.88-16.38-8.98-16.38C334.57,29.75,331.83,31.24,331.83,34.31z"/>
			<path class="st2" d="M382.19,39.83c0-7.71-2.05-10.42-5.13-10.42c-5.3,0-8.81,4.64-8.81,21.81c0,0,0,0.09,0,13.75
				c0,0-0.85,1.23-3.25,1.23c-2.31,0-4.45-1.58-4.45-5.34V27.56c0,0,0.86-1.23,3.25-1.23c2.31,0,4.45,1.58,4.45,5.34
				c1.88-3.42,4.96-5.34,9.83-5.34c5.04,0,9.06,2.36,10.94,7.1c1.88-4.56,5.3-7.1,10.86-7.1c7.18,0,12.14,4.73,12.14,13.93V52.7
				c0,6.83,2.31,10.07,5.73,10.07c3.85,0,8.04-3.59,8.04-17.08c0,0,0.09-0.53,1.28-0.53c0.68,0,1.54,0.88,1.54,4.64
				c0,9.72-4.27,16.38-11.88,16.38c-8.63,0-12.74-6.13-12.74-16.12V39.83c0-7.71-2.05-10.42-5.13-10.42
				c-4.45,0-8.72,4.56-8.72,21.99v13.58c0,0-0.85,1.23-3.25,1.23c-2.31,0-4.7-1.58-4.7-5.34V39.83z"/>
			<path class="st2" d="M461.79,46.22c1.11,0,1.8,1.14,1.8,2.8c0,7.36-4.96,17.17-17.18,17.17c-12.57,0-20.43-6.66-20.43-19.18
				c0-13.67,7.52-20.67,17.01-20.67c7.78,0,10.34,5.34,10.34,9.9c0,8.76-7.86,15.24-18.98,15.24c1.11,7.71,5.73,11.3,12.06,11.3
				c6.75,0,14.11-4.73,14.11-16.03C460.51,46.75,460.6,46.22,461.79,46.22z M434.09,48.24c5.73-0.79,13.08-3.59,13.08-11.48
				c0-4.56-2.05-7.01-5.56-7.01c-5.3,0-7.52,4.73-7.52,17.7V48.24z"/>
		</g>
	</g>
	<g>
		<text transform="matrix(0.9761 0 0 1 -554.2715 190.3569)"><tspan x="0" y="0" class="st1" style="font-family:'Sofia-Regular'; font-size:38.6024px;">moon</tspan><tspan x="86.35" y="0" class="st2" style="font-family:'Sofia-Regular'; font-size:38.6024px;">  </tspan></text>
		<path class="st1" d="M-463,170.76l0.05,0.11c-0.09,0.04-0.17,0.09-0.25,0.13c0.04,0,0.11-0.01,0.19-0.01
			c-0.03,0.02-0.06,0.04-0.09,0.06c0,0.01,0.02,0.02,0.02,0.02c-0.04,0-0.08-0.01-0.12,0c-0.18,0-0.37,0.03-0.61,0.11
			c-0.15,0.02-0.37,0.4-0.11,0.61c0.16,0.15,0.24,0.16,0.38,0.25c0.13,0.05,0.26,0.1,0.39,0.14c-0.11,0.03-0.23,0.06-0.35,0.12
			c-0.2,0.38-0.02,0.54,0.24,0.63c0.24,0.09,0.54,0.11,0.69,0.19c0.96,0.21,2.1,0.31,3.32,0.32c1.2,0.01,2.34-0.07,3.3-0.22
			c0.48-0.07,0.91-0.18,1.29-0.32c0.06-0.03,0.13-0.06,0.2-0.1c0.12-0.07,0.23-0.16,0.21-0.31c-0.01-0.01-0.02-0.02-0.03-0.03
			c-0.01-0.09-0.03-0.19-0.07-0.28c-0.07-0.07-0.15-0.13-0.22-0.17c0.01-0.01,0.03-0.01,0.04-0.02c0.16-0.11,0.49-0.19,0.47-0.53
			c-0.09-0.13-0.17-0.17-0.25-0.18c-0.03-0.1-0.09-0.19-0.16-0.28l0.01-0.01c0.02,0.02,0.03,0.04,0.05,0.07l-0.11-0.19
			c-0.01-0.01-0.02-0.03-0.02-0.04c0-0.01-0.01-0.02-0.02-0.04c-0.45-1.17,1.5-2.46,1.09-4.66c-0.34-2.17-2.42-4.64-5.39-4.7
			c-2.93-0.03-5.11,2.34-5.51,4.49C-465.19,168.35-462.73,169.5-463,170.76z M-457.62,170.63c-0.01,0.17-0.01,0.35-0.01,0.54
			c0,0.15,0,0.3,0.01,0.43c-0.16,0-0.33,0-0.5,0c0.01-0.16,0.02-0.33,0.02-0.51c0-0.16-0.01-0.31-0.01-0.45
			C-457.96,170.63-457.79,170.63-457.62,170.63z M-458.37,171.6c-0.12,0-0.25,0-0.38,0c0.01-0.16,0.02-0.33,0.02-0.51
			c-0.02-0.15-0.04-0.29-0.06-0.42c0.14-0.01,0.28-0.01,0.42-0.02c-0.01,0.14-0.02,0.29-0.02,0.45
			C-458.39,171.27-458.38,171.44-458.37,171.6z M-459.01,171.1c0,0.18,0.02,0.34,0.03,0.5c-0.11,0-0.22,0-0.33,0
			c-0.11,0-0.22,0-0.32,0c0.01-0.13,0.02-0.27,0.02-0.42c0-0.16-0.01-0.32-0.02-0.46c0.2-0.01,0.4-0.02,0.6-0.03
			C-459.04,170.81-459.03,170.95-459.01,171.1z M-459.88,171.59c-0.18,0-0.37,0-0.54-0.01c0.03-0.18,0.05-0.4,0.05-0.64
			c0-0.06,0-0.12-0.01-0.18c0.17-0.01,0.33-0.02,0.5-0.04c-0.01,0.14-0.02,0.28-0.02,0.44
			C-459.9,171.32-459.89,171.45-459.88,171.59z M-460.6,171.58c-0.13,0-0.26,0-0.38-0.01c0.02-0.15,0.04-0.31,0.05-0.49
			c0-0.09-0.01-0.18-0.03-0.27c0.11-0.01,0.21-0.02,0.32-0.03c0,0.05-0.01,0.1-0.01,0.16C-460.65,171.18-460.63,171.39-460.6,171.58
			z M-461.22,171.08c-0.01,0.17,0,0.33,0.01,0.48c-0.18-0.01-0.37-0.01-0.54-0.01c0.01-0.12,0.02-0.25,0.02-0.38
			c0-0.1,0-0.2-0.01-0.29c0.16-0.02,0.34-0.03,0.52-0.05C-461.22,170.91-461.22,170.99-461.22,171.08z M-461.99,171.54
			c-0.13-0.01-0.25-0.01-0.37-0.02c0.06-0.16,0.11-0.37,0.15-0.6c0.07-0.01,0.14-0.01,0.21-0.02c-0.01,0.09-0.01,0.18-0.01,0.27
			C-462.01,171.3-462,171.42-461.99,171.54z M-462.6,171.17c0.03-0.03,0.06-0.06,0.09-0.09c-0.01,0.16-0.01,0.31,0,0.44
			c-0.02,0-0.05,0-0.08,0c-0.16,0.03-0.35-0.01-0.53-0.04C-462.94,171.41-462.76,171.31-462.6,171.17z M-454.61,172.29
			c-0.01,0-0.01,0-0.02,0c0.01,0.01,0.02,0.01,0.03,0.02c0.01,0.01,0.01,0.01,0.02,0.02c0.04,0.09,0.09,0.17,0.15,0.25
			c-0.21,0.16-1.06,0.22-1.57,0.25c-0.94,0.06-2.06,0.08-3.24,0.07c-1.16-0.01-2.25-0.05-3.17-0.15c-0.4-0.01-1.03-0.19-0.99-0.21
			c0.1-0.12,0.3-0.2,0.5-0.26c0.03,0.01,0.07,0.02,0.1,0.03c1.01,0.26,2.2,0.39,3.48,0.4c0.63,0.01,1.24-0.02,1.82-0.07
			c0,0.01,0,0.02,0.01,0.03l0,0.03c0.01-0.02,0.01-0.04,0.01-0.06c0.57-0.05,1.11-0.13,1.61-0.23c0.41-0.08,0.78-0.19,1.13-0.32
			C-454.72,172.15-454.68,172.22-454.61,172.29z M-454.56,171.25c0.08,0.09,0.13,0.19,0.17,0.28c-0.26,0.08-1.06,0.01-1.58,0.07
			c-0.43,0.01-0.91,0.01-1.4,0c0.01-0.14,0.01-0.28,0.01-0.44c0-0.19-0.01-0.37-0.01-0.54c0.8,0.01,1.49,0.06,1.89,0.2l0.51,0.12
			C-454.79,171.03-454.66,171.13-454.56,171.25c-0.01-0.01-0.01-0.01-0.02-0.01C-454.56,171.24-454.56,171.25-454.56,171.25z"/>
		<path class="st2" d="M-462.7,177.77c-0.11,0.06-0.22,0.13-0.33,0.2c-0.11,0.08-0.21,0.16-0.31,0.25
			c-0.01,0.01-0.02,0.02-0.03,0.03c0.02,0.22-0.08,0.37-0.39,0.43c-0.04,0.05-0.08,0.1-0.11,0.16c-0.07,0.11-0.13,0.23-0.18,0.35
			c-0.32,0.75-0.34,1.56-0.12,2.32c0.04,0.15,0.09,0.31,0.16,0.45c0.19,0.42,0.44,0.81,0.72,1.18c0.09,0.12,0.19,0.24,0.29,0.36
			c0.11,0.14,0.24,0.26,0.36,0.39c0.14-0.01,0.29,0,0.49,0.02c0.24,0.2,0.21,0.37-0.02,0.47c0.65,0.64,1.34,1.26,1.98,1.92
			c0.08,0.08,0.16,0.17,0.25,0.25c0.41,0.43,0.82,0.86,1.25,1.29c0.09,0.1,0.19,0.2,0.29,0.3c0.56,0.58,1.11,1.16,1.63,1.77
			c0.42-0.63,0.89-1.24,1.37-1.84c0.08-0.1,0.16-0.2,0.25-0.3c0.36-0.44,0.71-0.88,1.05-1.32c0.07-0.09,0.14-0.18,0.21-0.26
			c0.01-0.01,0.01-0.02,0.02-0.02c-0.02,0-0.02,0-0.04,0c-1.16-0.03-1-1.01,0.37-0.75c0.06,0.05,0.11,0.11,0.15,0.17
			c0.65-0.75,1.33-1.47,1.87-2.27c0.08-0.12,0.16-0.24,0.23-0.36c0.22-0.37,0.41-0.76,0.54-1.19c0.04-0.15,0.07-0.3,0.09-0.46
			c0.1-0.77-0.04-1.58-0.47-2.32c-0.06-0.12-0.14-0.24-0.23-0.35c-0.17-0.22-0.38-0.43-0.62-0.6c-0.11-0.09-0.23-0.17-0.34-0.24
			c-0.12-0.08-0.24-0.14-0.36-0.19c-0.99-0.44-2.1-0.35-3.02,0.1c-0.9,0.45-1.44,1.32-1.81,2.21c-0.5-0.87-1.18-1.72-2.13-2.13
			C-460.66,177.36-461.78,177.3-462.7,177.77z M-457.04,181.42c0.45,0.05,0.9,0.1,0.77,0.38c0.34-0.12,0.12-0.51,0.56-0.57
			c0.42,0.3,0.97,0.77,1.73,0.68c-0.47,0.34,0.85,0.6,0.78,1.06c-1.11,0.09-2.14,0.07-3.44-0.33c0.27-0.6-0.39-0.19-0.78-0.72
			C-457.35,181.72-457.19,181.57-457.04,181.42z M-458.93,182.78c-0.17,0.14-0.53,0.19-0.38,0.49c-0.32-0.01-0.64-0.03-0.96-0.05
			c-0.21-0.26-0.43-0.51-0.39-0.87C-459.54,182.29-459.6,182.68-458.93,182.78z"/>
		<path class="st1" d="M-453.76,191.55c-1.89,0.04-3.83-0.06-5.73,0.02c-0.96,0.04-1.94,0.1-2.95,0.2c-0.92,0.3-1.89-0.16-2.84,0.85
			c-1.76-1.86-4.65-6.28-3.61-11.71c0.95-5.42,5.17-8.56,7.43-9.75l0.2-0.11c-2.39,0.47-7.59,3.5-8.71,9.66
			c-1.13,5.99,2.51,10.59,4.66,11.94c-0.07,0.08-0.14,0.16-0.21,0.25c4.32,1.68,8.07,0.97,11.42,1.09c1.47-0.1,2.95-0.09,4.41-0.28
			c0.54-0.07,2.26-0.25,2.7-0.88c0.08-0.11,0.11-0.24,0.1-0.38C-446.99,191.52-453.03,191.53-453.76,191.55z"/>
		
			<text transform="matrix(0.9761 0 0 1 -448.3183 190.4722)" class="st2" style="font-family:'Sofia-Regular'; font-size:38.6024px;">arome</text>
	</g>
</g>
</svg>
