<?xml version="1.0" encoding="utf-8"?>
<!-- Generator: Adobe Illustrator 26.2.1, SVG Export Plug-In . SVG Version: 6.00 Build 0)  -->
<svg version="1.1" id="Capa_1" xmlns="http://www.w3.org/2000/svg" xmlns:xlink="http://www.w3.org/1999/xlink" x="0px" y="0px"
	 viewBox="0 0 150 23.9" style="enable-background:new 0 0 150 23.9;" xml:space="preserve">
<style type="text/css">
	.st0{fill:#FFFFFF;}
	.st1{fill:none;}
	.st2{font-family:'ArialMT';}
	.st3{font-size:12px;}
	.st4{fill:#1C1B1B;}
	.st5{fill:#9C3E6B;}
	.st6{fill:none;stroke:#9C3E6B;stroke-miterlimit:10;}
</style>
<g id="BG">
	<rect x="-1457.3" y="40.7" class="st0" width="1122" height="1122"/>
</g>
<g id="Object">
	<g>
		<path id="SVGID_x5F_1_x5F_" class="st1" d="M-868.7,270.4c-1.2,46.2-39.6,82.7-85.8,81.5s-82.7-39.6-81.5-85.8
			c1.2-46.2,39.6-82.7,85.8-81.5S-867.5,224.2-868.7,270.4z"/>
		<text transform="matrix(0.9071 -0.4208 0.4208 0.9071 -989.0375 192.9873)" class="st2 st3"> </text>
		
			<text transform="matrix(0.9538 -0.3004 0.3004 0.9538 -986.1721 191.1321)" style="font-family:'Sofia-Regular'; font-size:51.3094px;"> </text>
		
			<text transform="matrix(0.9998 1.744603e-02 -1.744603e-02 0.9998 -968.8174 184.2617)" class="st5" style="font-family:'Sofia-Regular'; font-size:46.7821px;">m</text>
		
			<text transform="matrix(0.9349 0.355 -0.355 0.9349 -932.9712 186.0728)" class="st5" style="font-family:'Sofia-Regular'; font-size:46.7821px;">o</text>
		
			<text transform="matrix(0.8094 0.5873 -0.5873 0.8094 -912.2179 193.9773)" class="st5" style="font-family:'Sofia-Regular'; font-size:46.7821px;">o</text>
		
			<text transform="matrix(0.6171 0.7869 -0.7869 0.6171 -894.1128 206.9194)" class="st5" style="font-family:'Sofia-Regular'; font-size:46.7821px;">n</text>
		
			<text transform="matrix(0.4065 0.9136 -0.9136 0.4065 -879.2402 226.7015)" class="st5" style="font-family:'Sofia-Regular'; font-size:46.7821px;"> </text>
		
			<text transform="matrix(0.1651 0.9863 -0.9863 0.1651 -871.9394 241.7774)" class="st5" style="font-family:'Sofia-Regular'; font-size:46.7821px;">a</text>
		<text class="st2 st3"> </text>
		<path id="SVGID_x5F_00000065770777248977707770000010407435737132052612_x5F_" class="st1" d="M-842.9,256.8
			c-3.4-60.8-55.4-107.4-116.2-104c-60.8,3.4-107.3,55.4-104,116.2s55.4,107.4,116.2,104C-886.1,369.7-839.5,317.6-842.9,256.8z"/>
		<text transform="matrix(0.8341 0.5516 -0.5516 0.8341 -1015.16 354.0646)" class="st2 st3"> </text>
		<text transform="matrix(0.872 0.4895 -0.4895 0.872 -1012.4654 356.0517)" style="font-family:'Sofia-Regular'; font-size:36px;"> </text>
		
			<text transform="matrix(0.9227 0.3855 -0.3855 0.9227 -1001.3406 362.2973)" style="font-family:'Sofia-Regular'; font-size:36px;"> </text>
		
			<text transform="matrix(0.9612 0.2758 -0.2758 0.9612 -989.5687 367.2153)" style="font-family:'Sofia-Regular'; font-size:36px;"> </text>
		
			<text transform="matrix(0.9868 0.1622 -0.1622 0.9868 -977.3056 370.7329)" style="font-family:'Sofia-Regular'; font-size:36px;"> </text>
		
			<text transform="matrix(0.9989 4.709004e-02 -4.709004e-02 0.9989 -964.7167 372.8008)" style="font-family:'Sofia-Regular'; font-size:36px;"> </text>
		
			<text transform="matrix(0.9978 -6.683379e-02 6.683379e-02 0.9978 -951.9732 373.3976)" style="font-family:'Sofia-Regular'; font-size:36px;"> </text>
		<text transform="matrix(0.9836 -0.1805 0.1805 0.9836 -939.244 372.5468)" style="font-family:'Sofia-Regular'; font-size:36px;"> </text>
		
			<text transform="matrix(0.9462 -0.3237 0.3237 0.9462 -926.6152 370.4921)" style="font-family:'Sofia-Regular'; font-size:36px;">p</text>
		
			<text transform="matrix(0.8838 -0.4678 0.4678 0.8838 -907.9623 363.8959)" style="font-family:'Sofia-Regular'; font-size:36px;">e</text>
		<text transform="matrix(0.8156 -0.5787 0.5787 0.8156 -895.0068 357.012)" style="font-family:'Sofia-Regular'; font-size:36px;">r</text>
		
			<text transform="matrix(0.7478 -0.6639 0.6639 0.7478 -883.6428 348.8165)" style="font-family:'Sofia-Regular'; font-size:36px;">f</text>
		
			<text transform="matrix(0.6547 -0.7559 0.7559 0.6547 -875.8827 342.3132)" style="font-family:'Sofia-Regular'; font-size:36px;">u</text>
		<text transform="matrix(0.4827 -0.8758 0.8758 0.4827 -863.043 328.1602)" style="font-family:'Sofia-Regular'; font-size:36px;">m</text>
		
			<text transform="matrix(0.3067 -0.9518 0.9518 0.3067 -850.2878 303.7388)" style="font-family:'Sofia-Regular'; font-size:36px;">e</text>
		
			<text transform="matrix(0.1736 -0.9848 0.9848 0.1736 -845.7629 289.7766)" style="font-family:'Sofia-Regular'; font-size:36px;">s</text>
		<text transform="matrix(8.898419e-02 -0.996 0.996 8.898419e-02 -843.3439 274.5635)" class="st2 st3"> </text>
		<text transform="matrix(5.884767e-02 -0.9983 0.9983 5.884767e-02 -843.0469 271.2425)" class="st2 st3"> </text>
		<text class="st2 st3"> </text>
		<g>
			<g>
				<path class="st4" d="M-916.7,274c-4.5-16.8-19.3-24.4-26.2-25.2c6.5,2.7,19.2,10.8,23.3,26c0,0.2,0.1,0.4,0.1,0.5
					c-0.1,0.1-0.1,0.2-0.1,0.3c0,0,0,0-0.1,0c-0.3-0.1-0.6-0.1-0.9,0.1h0c0,0.3,0.3,0.5,0.7,0.7c0.2,0.1,0.5,0,0.6,0
					c0,0.2,0.1,0.5,0.2,0.7c-0.2,0-0.4,0-0.7,0c-0.7,0-1.3,0.1-1.7,0.4l0,0c0.3,0.2,1,0.4,1.7,0.4c0.3,0,0.6,0,0.8-0.1
					c0.1,0.4,0.1,0.7,0.2,1c-0.2,0-0.5-0.1-0.8-0.1c-0.8,0-1.5,0.1-1.9,0.4l0,0c0.4,0.2,1.1,0.4,1.9,0.4c0.3,0,0.6,0,0.9-0.1
					c0,0.3,0.1,0.7,0.1,1c-0.2,0-0.4,0-0.6,0c-0.8,0-1.5,0.1-1.9,0.4l0,0c0.4,0.2,1.1,0.4,1.9,0.4c0.2,0,0.5,0,0.7,0
					c0,0.5,0.1,0.9,0.1,1.4c-0.3,0-0.6-0.1-1-0.1c-0.8-0.1-1.6-0.1-2.1,0h0c0.3,0.3,1.1,0.6,2.1,0.8c0.4,0,0.7,0,1,0
					c0,0.4,0,0.8,0,1.1c-0.1,0-0.2-0.1-0.3-0.1c-0.6-0.2-1.1-0.2-1.5,0h0c0.2,0.3,0.7,0.6,1.4,0.8c0.2,0,0.3,0.1,0.5,0.1
					c0,0.4,0,0.8,0,1.2c-0.2,0-0.4,0-0.5,0c-0.7-0.1-1.3-0.1-1.7,0h0c0.2,0.3,0.9,0.6,1.6,0.8c0.2,0,0.4,0,0.6,0c0,0.3,0,0.6-0.1,1
					c-0.2-0.1-0.5-0.1-0.8-0.2c-0.7-0.1-1.4,0-1.7,0.1l0,0c0.3,0.3,0.9,0.5,1.6,0.6c0.3,0,0.6,0,0.9,0c0,0.4-0.1,0.8-0.2,1.2
					c-0.4-0.1-0.9-0.2-1.5-0.2c-0.8-0.1-1.6-0.1-2.1,0h0c0.3,0.3,1.1,0.6,2.1,0.8c0.6,0,1.1,0,1.5-0.1c-0.1,0.6-0.2,1.2-0.3,1.8
					c-0.4-0.3-1.1-0.6-1.9-0.7c-0.8-0.2-1.6-0.2-2.1,0h0c0.3,0.3,1.1,0.6,2,0.8c0.8,0.2,1.5,0.2,2,0.1c-0.1,0.3-0.1,0.6-0.2,1
					c-0.5-0.1-1.1-0.2-1.7-0.3c-1.1-0.1-2,0-2.5,0.2l0,0c0.5,0.3,1.4,0.5,2.5,0.6c0.6,0.1,1.2,0,1.7,0c-0.1,0.5-0.2,1-0.4,1.5
					c-0.4-0.1-0.9-0.2-1.5-0.3c-1.2,0-2.2,0.1-2.7,0.3l0,0c0.5,0.2,1.5,0.4,2.7,0.5c0.5,0.1,0.9,0.1,1.3,0.1
					c-0.1,0.3-0.2,0.6-0.3,0.9c-0.5-0.2-1.3-0.5-2.3-0.5c-1.2,0-2.2,0.1-2.7,0.3l0,0c0.5,0.2,1.6,0.4,2.7,0.4
					c0.8,0.1,1.6,0.1,2.2,0.1c-0.2,0.5-0.3,1-0.5,1.4c-0.5-0.5-1.6-1.1-2.9-1.1c-1.4,0-2.6,0.2-3.2,0.4l0,0c0.6,0.2,1.9,0.3,3.2,0.3
					c1.2,0,2.2,0.3,2.9,0.5c-0.2,0.5-0.4,1-0.6,1.5c-0.6-0.4-1.5-0.8-2.7-0.9c-1.3-0.2-2.5-0.2-3.2-0.1h0c0.6,0.3,1.8,0.7,3.1,0.9
					c1.1,0.2,2,0.3,2.7,0.4c-0.2,0.5-0.5,1.1-0.7,1.6c-0.7-0.3-1.7-0.6-3-0.9c-1.4-0.3-2.7-0.4-3.4-0.2h-0.1c0.6,0.4,1.8,0.7,3.3,1
					c1.2,0.2,2.3,0.3,3,0.3c-0.5,1-0.9,1.9-1.4,2.8c-0.5-0.6-1.7-1.5-3.2-1.7c-1.6-0.2-3,0-3.8,0.2l-0.1,0c0.7,0.2,2.1,0.4,3.7,0.6
					c1.5,0.2,2.5,0.7,3.3,1c-0.9,1.6-1.8,2.9-2.6,4l-0.4,0.5C-921.1,305.1-912,290.9-916.7,274z"/>
				<path class="st4" d="M-926,271.1c-5.4-16.4-22.5-20.1-28.8-18.5c6.6-0.2,21.8,4.3,26.6,19.2c4.7,14.5-4.5,26.9-10.3,30.6
					l-0.5,0.4C-932.8,300.7-920.7,287.7-926,271.1z"/>
				<path class="st4" d="M-946.8,307c-5.3,0.1-10.7-0.2-16,0c-2.7,0.1-5.4,0.3-8.2,0.5c-2.6,0.8-5.3-0.5-7.9,2.4
					c-4.9-5.2-13-17.5-10.1-32.7c2.7-15.1,14.4-23.9,20.7-27.2l0.6-0.3c-6.7,1.3-21.2,9.8-24.3,26.9c-3.2,16.7,7,29.5,13,33.3
					c-0.2,0.2-0.4,0.4-0.6,0.7c12.1,4.7,22.5,2.7,31.8,3c4.1-0.3,8.2-0.2,12.3-0.8c1.5-0.2,6.3-0.7,7.5-2.5c0.2-0.3,0.3-0.7,0.3-1.1
					C-927.9,306.9-944.8,306.9-946.8,307z"/>
				<path class="st4" d="M-966.6,242.6l0.2,0.3c-0.2,0.1-0.5,0.2-0.7,0.4c0.1,0,0.3,0,0.5,0c-0.1,0.1-0.2,0.1-0.3,0.2
					c0,0,0,0,0.1,0.1c-0.1,0-0.2,0-0.3,0c-0.5,0-1,0.1-1.7,0.3c-0.4,0.1-1,1.1-0.3,1.7c0.4,0.4,0.7,0.4,1.1,0.7
					c0.4,0.1,0.7,0.3,1.1,0.4c-0.3,0.1-0.6,0.2-1,0.3c-0.5,1.1,0,1.5,0.7,1.8c0.7,0.2,1.5,0.3,1.9,0.5c2.7,0.6,5.9,0.9,9.3,0.9
					c3.4,0,6.5-0.2,9.2-0.6c1.3-0.2,2.5-0.5,3.6-0.9c0.2-0.1,0.4-0.2,0.5-0.3c0.3-0.2,0.6-0.4,0.6-0.9c0,0-0.1-0.1-0.1-0.1
					c0-0.2-0.1-0.5-0.2-0.8c-0.2-0.2-0.4-0.4-0.6-0.5c0,0,0.1,0,0.1-0.1c0.4-0.3,1.3-0.5,1.3-1.5c-0.2-0.4-0.5-0.5-0.7-0.5
					c-0.1-0.3-0.2-0.5-0.4-0.8l0,0c0,0.1,0.1,0.1,0.1,0.2l-0.3-0.5c0,0,0-0.1-0.1-0.1c0,0,0-0.1,0-0.1c-1.2-3.3,4.2-6.9,3-13
					c-1-6.1-6.8-12.9-15-13.1c-8.2-0.1-14.2,6.5-15.4,12.5C-972.7,235.9-965.9,239.1-966.6,242.6z M-951.6,242.3c0,0.5,0,1,0,1.5
					c0,0.4,0,0.8,0,1.2c-0.5,0-0.9,0-1.4,0c0-0.4,0-0.9,0-1.4c0-0.4,0-0.9,0-1.3C-952.6,242.3-952.1,242.3-951.6,242.3z M-953.7,245
					c-0.3,0-0.7,0-1,0c0-0.4,0-0.9,0-1.4c0-0.4-0.1-0.8-0.2-1.2c0.4,0,0.8,0,1.2-0.1c0,0.4,0,0.8,0,1.2
					C-953.8,244.1-953.8,244.5-953.7,245z M-955.5,243.6c0,0.5,0,0.9,0.1,1.4c-0.3,0-0.6,0-0.9,0c-0.3,0-0.6,0-0.9,0
					c0-0.4,0-0.8,0-1.2c0-0.5,0-0.9-0.1-1.3c0.5,0,1.1-0.1,1.7-0.1C-955.6,242.8-955.5,243.1-955.5,243.6z M-957.9,244.9
					c-0.5,0-1,0-1.5,0c0.1-0.5,0.1-1.1,0.1-1.8c0-0.2,0-0.3,0-0.5c0.5,0,0.9-0.1,1.4-0.1c0,0.4-0.1,0.8-0.1,1.2
					C-958,244.2-958,244.6-957.9,244.9z M-959.9,244.9c-0.4,0-0.7,0-1.1,0c0.1-0.4,0.1-0.9,0.1-1.4c0-0.3,0-0.5-0.1-0.8
					c0.3,0,0.6-0.1,0.9-0.1c0,0.1,0,0.3,0,0.4C-960.1,243.8-960,244.4-959.9,244.9z M-961.7,243.5c0,0.5,0,0.9,0,1.4
					c-0.5,0-1,0-1.5,0c0-0.3,0.1-0.7,0.1-1.1c0-0.3,0-0.6,0-0.8c0.5,0,0.9-0.1,1.4-0.1C-961.7,243.1-961.7,243.3-961.7,243.5z
					 M-963.8,244.8c-0.3,0-0.7,0-1-0.1c0.2-0.4,0.3-1,0.4-1.7c0.2,0,0.4,0,0.6-0.1c0,0.2,0,0.5,0,0.8
					C-963.8,244.1-963.8,244.5-963.8,244.8z M-965.5,243.8c0.1-0.1,0.2-0.2,0.3-0.2c0,0.4,0,0.9,0,1.2c-0.1,0-0.1,0-0.2,0
					c-0.5,0.1-1,0-1.5-0.1C-966.5,244.4-966,244.2-965.5,243.8z M-943.2,246.9C-943.2,246.9-943.3,246.9-943.2,246.9
					C-943.2,246.9-943.2,246.9-943.2,246.9C-943.2,246.9-943.2,247-943.2,246.9c0.2,0.3,0.3,0.6,0.5,0.8c-0.6,0.4-3,0.6-4.4,0.7
					c-2.6,0.2-5.7,0.2-9,0.2c-3.2,0-6.3-0.1-8.8-0.4c-1.1,0-2.9-0.5-2.8-0.6c0.3-0.3,0.8-0.6,1.4-0.7c0.1,0,0.2,0.1,0.3,0.1
					c2.8,0.7,6.2,1.1,9.7,1.1c1.8,0,3.5-0.1,5.1-0.2c0,0,0,0.1,0,0.1l0,0.1c0-0.1,0-0.1,0-0.2c1.6-0.1,3.1-0.4,4.5-0.6
					c1.1-0.2,2.2-0.5,3.1-0.9C-943.5,246.5-943.4,246.7-943.2,246.9z M-943.1,244c0.2,0.2,0.4,0.5,0.5,0.8c-0.7,0.2-3,0-4.4,0.2
					c-1.2,0-2.5,0-3.9,0c0-0.4,0-0.8,0-1.2c0-0.5,0-1,0-1.5c2.2,0,4.1,0.2,5.3,0.6l1.4,0.4C-943.7,243.4-943.3,243.7-943.1,244
					C-943.1,244-943.1,244-943.1,244C-943.1,244-943.1,244-943.1,244z"/>
				<path class="st4" d="M-959.2,253.3l0.5-0.2c-4.9,0-15.6,4.2-20.7,14.6c0-0.3,0.1-0.6,0.1-0.8c0,0,0,0.1-0.1,0.1
					c1.2-2.7,2.5-4.9,3.3-6.5c-1,0.8-2.3,2-3.6,3.5c0.5-0.9,1-1.8,1.3-2.5c1.2-1.7,2.3-3,3.3-4c-4.7,1.8-12.2,10.4-12.3,22.2
					c-0.4,11.5,5.9,20.5,10.4,23l0.3,0.3c-0.9-1.1-2-2.6-3-4.4c1.5,1.7,3.1,3,4.3,3.8l0.3,0.3c-0.5-0.7-1-1.5-1.6-2.5
					c-0.9-1.4-1.9-3.3-2.9-5.6c-0.4-2.1-1.1-4.7-1.7-7.5c0-0.1,0-0.3,0.1-0.4c2.1,7,6.8,12.1,9.9,13.7c-4.2-3.9-11.4-14.6-7.8-27.3
					C-975.8,260.8-964.8,254.9-959.2,253.3z"/>
				<path class="st4" d="M-923.1,303.5c-0.4-0.5-1.5-1.3-2.9-1.7c-1.4-0.3-2.7-0.2-3.3,0l-0.1,0c0.7,0.2,1.8,0.5,3.2,0.8
					C-924.9,302.9-923.8,303.3-923.1,303.5z"/>
				<path class="st4" d="M-948.3,300.1c-1.8-0.2-5.4-0.4-9.5-0.4c-4.1,0-7.6,0.1-9.4,0.4c1.8,0.2,5.4,0.4,9.4,0.4
					c4,0,7.4-0.1,9.3-0.4L-948.3,300.1z"/>
				<path class="st4" d="M-950.4,302.2c-1.7-0.2-5-0.3-8.9-0.2c-3.8,0.1-7.1,0.3-8.8,0.6c1.7,0.2,5,0.3,8.8,0.2
					c3.7-0.1,6.9-0.3,8.7-0.6L-950.4,302.2z"/>
			</g>
		</g>
		<path class="st4" d="M-870.6,275.7c-0.2,0.1-0.3,0.2-0.5,0.3c-0.2,0.1-0.3,0.2-0.5,0.4c0,0,0,0,0,0c0,0.3-0.1,0.5-0.6,0.6
			c0,0.1-0.1,0.1-0.2,0.2c-0.1,0.2-0.2,0.3-0.3,0.5c-0.5,1.1-0.5,2.3-0.2,3.4c0.1,0.2,0.1,0.4,0.2,0.7c0.3,0.6,0.6,1.2,1,1.7
			c0.1,0.2,0.3,0.3,0.4,0.5c0.2,0.2,0.3,0.4,0.5,0.6c0.2,0,0.4,0,0.7,0c0.3,0.3,0.3,0.5,0,0.7c0.9,0.9,2,1.8,2.9,2.8
			c0.1,0.1,0.2,0.2,0.4,0.4c0.6,0.6,1.2,1.2,1.8,1.9c0.1,0.1,0.3,0.3,0.4,0.4c0.8,0.8,1.6,1.7,2.4,2.6c0.6-0.9,1.3-1.8,2-2.7
			c0.1-0.1,0.2-0.3,0.4-0.4c0.5-0.6,1-1.3,1.5-1.9c0.1-0.1,0.2-0.3,0.3-0.4c0,0,0,0,0,0c0,0,0,0-0.1,0c-1.7,0-1.5-1.5,0.5-1.1
			c0.1,0.1,0.2,0.2,0.2,0.2c0.9-1.1,1.9-2.1,2.7-3.3c0.1-0.2,0.2-0.4,0.3-0.5c0.3-0.5,0.6-1.1,0.8-1.7c0-0.2,0.1-0.4,0.1-0.7
			c0.1-1.1,0-2.3-0.7-3.4c-0.1-0.2-0.2-0.4-0.3-0.5c-0.2-0.3-0.5-0.6-0.9-0.9c-0.2-0.1-0.3-0.2-0.5-0.4c-0.2-0.1-0.3-0.2-0.5-0.3
			c-1.4-0.6-3-0.5-4.4,0.1c-1.3,0.6-2.1,1.9-2.6,3.2c-0.7-1.3-1.7-2.5-3.1-3.1C-867.6,275.1-869.2,275-870.6,275.7z M-862.4,281
			c0.7,0.1,1.3,0.1,1.1,0.5c0.5-0.2,0.2-0.7,0.8-0.8c0.6,0.4,1.4,1.1,2.5,1c-0.7,0.5,1.2,0.9,1.1,1.5c-1.6,0.1-3.1,0.1-5-0.5
			c0.4-0.9-0.6-0.3-1.1-1C-862.8,281.4-862.6,281.2-862.4,281z M-865.1,283c-0.2,0.2-0.8,0.3-0.5,0.7c-0.5,0-0.9,0-1.4-0.1
			c-0.3-0.4-0.6-0.7-0.6-1.3C-866,282.3-866.1,282.8-865.1,283z"/>
		<path class="st5" d="M-1052.6,275.7c-0.2,0.1-0.3,0.2-0.5,0.3c-0.2,0.1-0.3,0.2-0.4,0.4c0,0,0,0,0,0c0,0.3-0.1,0.5-0.6,0.6
			c-0.1,0.1-0.1,0.1-0.2,0.2c-0.1,0.2-0.2,0.3-0.3,0.5c-0.5,1.1-0.5,2.3-0.2,3.4c0.1,0.2,0.1,0.4,0.2,0.7c0.3,0.6,0.6,1.2,1,1.7
			c0.1,0.2,0.3,0.3,0.4,0.5c0.2,0.2,0.3,0.4,0.5,0.6c0.2,0,0.4,0,0.7,0c0.3,0.3,0.3,0.5,0,0.7c0.9,0.9,1.9,1.8,2.9,2.8
			c0.1,0.1,0.2,0.2,0.4,0.4c0.6,0.6,1.2,1.2,1.8,1.9c0.1,0.1,0.3,0.3,0.4,0.4c0.8,0.8,1.6,1.7,2.4,2.6c0.6-0.9,1.3-1.8,2-2.7
			c0.1-0.1,0.2-0.3,0.4-0.4c0.5-0.6,1-1.3,1.5-1.9c0.1-0.1,0.2-0.3,0.3-0.4c0,0,0,0,0,0c0,0,0,0-0.1,0c-1.7,0-1.4-1.5,0.5-1.1
			c0.1,0.1,0.2,0.2,0.2,0.2c0.9-1.1,1.9-2.1,2.7-3.3c0.1-0.2,0.2-0.4,0.3-0.5c0.3-0.5,0.6-1.1,0.8-1.7c0.1-0.2,0.1-0.4,0.1-0.7
			c0.1-1.1-0.1-2.3-0.7-3.4c-0.1-0.2-0.2-0.4-0.3-0.5c-0.2-0.3-0.6-0.6-0.9-0.9c-0.2-0.1-0.3-0.2-0.5-0.4c-0.2-0.1-0.3-0.2-0.5-0.3
			c-1.4-0.6-3.1-0.5-4.4,0.1c-1.3,0.6-2.1,1.9-2.6,3.2c-0.7-1.3-1.7-2.5-3.1-3.1C-1049.6,275.1-1051.2,275-1052.6,275.7z
			 M-1044.4,281c0.7,0.1,1.3,0.1,1.1,0.5c0.5-0.2,0.2-0.7,0.8-0.8c0.6,0.4,1.4,1.1,2.5,1c-0.7,0.5,1.2,0.9,1.1,1.5
			c-1.6,0.1-3.1,0.1-5-0.5c0.4-0.9-0.6-0.3-1.1-1C-1044.8,281.4-1044.6,281.2-1044.4,281z M-1047.1,283c-0.2,0.2-0.8,0.3-0.6,0.7
			c-0.5,0-0.9,0-1.4-0.1c-0.3-0.4-0.6-0.7-0.6-1.3C-1048,282.3-1048.1,282.8-1047.1,283z"/>
	</g>
	<text transform="matrix(0.9761 0 0 1 -813.4795 385.4004)" style="font-family:'ShreeDev0714'; font-size:9.5254px;">PERFUMES</text>
	<g>
		<g>
			<path class="st4" d="M-640.5,280.9c-2-7.4-8.5-10.7-11.5-11.1c2.8,1.2,8.5,4.7,10.2,11.4c0,0.1,0,0.1,0.1,0.2c0,0,0,0.1,0,0.1
				c0,0,0,0,0,0c-0.1,0-0.3,0-0.4,0h0c0,0.1,0.2,0.2,0.3,0.3c0.1,0,0.2,0,0.3,0c0,0.1,0,0.2,0.1,0.3c-0.1,0-0.2,0-0.3,0
				c-0.3,0-0.6,0.1-0.7,0.2h0c0.1,0.1,0.4,0.2,0.7,0.2c0.1,0,0.2,0,0.3,0c0,0.1,0,0.3,0.1,0.5c-0.1,0-0.2,0-0.3,0
				c-0.3,0-0.7,0.1-0.8,0.2l0,0c0.2,0.1,0.5,0.2,0.8,0.2c0.1,0,0.3,0,0.4,0c0,0.1,0,0.3,0.1,0.4c-0.1,0-0.2,0-0.3,0
				c-0.3,0-0.7,0.1-0.8,0.2h0c0.2,0.1,0.5,0.2,0.8,0.2c0.1,0,0.2,0,0.3,0c0,0.2,0,0.4,0,0.6c-0.1,0-0.3,0-0.4,0
				c-0.4-0.1-0.7-0.1-0.9,0h0c0.1,0.1,0.5,0.3,0.9,0.3c0.2,0,0.3,0,0.5,0c0,0.2,0,0.3,0,0.5c0,0-0.1,0-0.1,0c-0.2-0.1-0.5-0.1-0.7,0
				h0c0.1,0.1,0.3,0.3,0.6,0.4c0.1,0,0.1,0,0.2,0c0,0.2,0,0.4,0,0.5c-0.1,0-0.2,0-0.2,0c-0.3-0.1-0.6-0.1-0.7,0h0
				c0.1,0.1,0.4,0.3,0.7,0.3c0.1,0,0.2,0,0.3,0c0,0.1,0,0.3,0,0.4c-0.1,0-0.2-0.1-0.4-0.1c-0.3,0-0.6,0-0.8,0.1h0
				c0.2,0.1,0.4,0.2,0.7,0.3c0.1,0,0.3,0,0.4,0c0,0.2,0,0.4-0.1,0.5c-0.2,0-0.4-0.1-0.7-0.1c-0.4-0.1-0.7-0.1-0.9,0h0
				c0.1,0.1,0.5,0.3,0.9,0.3c0.2,0,0.5,0,0.7,0c0,0.3-0.1,0.5-0.1,0.8c-0.2-0.1-0.5-0.2-0.8-0.3c-0.4-0.1-0.7-0.1-0.9,0h0
				c0.1,0.1,0.5,0.3,0.9,0.4c0.3,0.1,0.7,0.1,0.9,0c0,0.1-0.1,0.3-0.1,0.4c-0.2-0.1-0.5-0.1-0.8-0.1c-0.5,0-0.9,0-1.1,0.1h0
				c0.2,0.1,0.6,0.2,1.1,0.3c0.3,0,0.5,0,0.8,0c0,0.2-0.1,0.4-0.2,0.6c-0.2,0-0.4-0.1-0.6-0.1c-0.5,0-1,0-1.2,0.1h0
				c0.2,0.1,0.7,0.2,1.2,0.2c0.2,0,0.4,0,0.6,0c0,0.1-0.1,0.3-0.1,0.4c-0.2-0.1-0.6-0.2-1-0.2c-0.5,0-1,0-1.2,0.1h0
				c0.2,0.1,0.7,0.2,1.2,0.2c0.4,0,0.7,0.1,1,0c-0.1,0.2-0.1,0.4-0.2,0.6c-0.2-0.2-0.7-0.5-1.3-0.5c-0.6,0-1.1,0.1-1.4,0.2h0
				c0.3,0.1,0.8,0.1,1.4,0.1c0.5,0,1,0.1,1.3,0.2c-0.1,0.2-0.2,0.4-0.2,0.6c-0.3-0.2-0.7-0.3-1.2-0.4c-0.6-0.1-1.1-0.1-1.4,0h0
				c0.2,0.1,0.8,0.3,1.4,0.4c0.5,0.1,0.9,0.1,1.2,0.2c-0.1,0.2-0.2,0.5-0.3,0.7c-0.3-0.1-0.8-0.3-1.3-0.4c-0.6-0.1-1.2-0.1-1.5-0.1
				h0c0.3,0.1,0.8,0.3,1.5,0.5c0.5,0.1,1,0.1,1.3,0.1c-0.2,0.4-0.4,0.8-0.6,1.2c-0.2-0.3-0.7-0.7-1.4-0.8c-0.7-0.1-1.3,0-1.7,0.1h0
				c0.3,0.1,0.9,0.2,1.6,0.3c0.6,0.1,1.1,0.3,1.5,0.5c-0.4,0.7-0.8,1.3-1.2,1.8l-0.2,0.2C-642.5,294.5-638.5,288.3-640.5,280.9z"/>
			<path class="st4" d="M-644.6,279.6c-2.4-7.2-9.9-8.8-12.7-8.1c2.9-0.1,9.6,1.9,11.7,8.4c2,6.4-2,11.8-4.5,13.5l-0.2,0.2
				C-647.6,292.6-642.3,286.9-644.6,279.6z"/>
			<path class="st4" d="M-653.8,295.4c-2.3,0-4.7-0.1-7,0c-1.2,0-2.4,0.1-3.6,0.2c-1.1,0.4-2.3-0.2-3.5,1c-2.2-2.3-5.7-7.7-4.4-14.4
				c1.2-6.6,6.3-10.5,9.1-12l0.2-0.1c-2.9,0.6-9.3,4.3-10.7,11.8c-1.4,7.4,3.1,13,5.7,14.6c-0.1,0.1-0.2,0.2-0.3,0.3
				c5.3,2.1,9.9,1.2,14,1.3c1.8-0.1,3.6-0.1,5.4-0.4c0.7-0.1,2.8-0.3,3.3-1.1c0.1-0.1,0.1-0.3,0.1-0.5
				C-645.5,295.3-652.9,295.4-653.8,295.4z"/>
			<path class="st4" d="M-662.5,267.1l0.1,0.1c-0.1,0-0.2,0.1-0.3,0.2c0,0,0.1,0,0.2,0c0,0-0.1,0-0.1,0.1c0,0,0,0,0,0
				c0,0-0.1,0-0.2,0c-0.2,0-0.5,0-0.8,0.1c-0.2,0-0.5,0.5-0.1,0.8c0.2,0.2,0.3,0.2,0.5,0.3c0.2,0.1,0.3,0.1,0.5,0.2
				c-0.1,0-0.3,0.1-0.4,0.1c-0.2,0.5,0,0.7,0.3,0.8c0.3,0.1,0.7,0.1,0.8,0.2c1.2,0.3,2.6,0.4,4.1,0.4c1.5,0,2.9-0.1,4-0.3
				c0.6-0.1,1.1-0.2,1.6-0.4c0.1,0,0.2-0.1,0.2-0.1c0.2-0.1,0.3-0.2,0.3-0.4c0,0,0,0,0,0c0-0.1,0-0.2-0.1-0.4
				c-0.1-0.1-0.2-0.2-0.3-0.2c0,0,0,0,0,0c0.2-0.1,0.6-0.2,0.6-0.6c-0.1-0.2-0.2-0.2-0.3-0.2c0-0.1-0.1-0.2-0.2-0.3l0,0
				c0,0,0,0,0.1,0.1l-0.1-0.2c0,0,0,0,0,0c0,0,0,0,0,0c-0.5-1.4,1.8-3,1.3-5.7c-0.4-2.7-3-5.7-6.6-5.8c-3.6,0-6.3,2.9-6.8,5.5
				C-665.2,264.1-662.2,265.5-662.5,267.1z M-655.9,266.9c0,0.2,0,0.4,0,0.7c0,0.2,0,0.4,0,0.5c-0.2,0-0.4,0-0.6,0
				c0-0.2,0-0.4,0-0.6c0-0.2,0-0.4,0-0.6C-656.3,266.9-656.1,266.9-655.9,266.9z M-656.8,268.1c-0.2,0-0.3,0-0.5,0
				c0-0.2,0-0.4,0-0.6c0-0.2,0-0.4-0.1-0.5c0.2,0,0.3,0,0.5,0c0,0.2,0,0.4,0,0.5C-656.8,267.7-656.8,267.9-656.8,268.1z
				 M-657.6,267.5c0,0.2,0,0.4,0,0.6c-0.1,0-0.3,0-0.4,0c-0.1,0-0.3,0-0.4,0c0-0.2,0-0.3,0-0.5c0-0.2,0-0.4,0-0.6c0.2,0,0.5,0,0.7,0
				C-657.6,267.1-657.6,267.3-657.6,267.5z M-658.7,268.1c-0.2,0-0.5,0-0.7,0c0-0.2,0.1-0.5,0.1-0.8c0-0.1,0-0.1,0-0.2
				c0.2,0,0.4,0,0.6,0c0,0.2,0,0.4,0,0.5C-658.7,267.8-658.7,267.9-658.7,268.1z M-659.5,268.1c-0.2,0-0.3,0-0.5,0
				c0-0.2,0-0.4,0.1-0.6c0-0.1,0-0.2,0-0.3c0.1,0,0.3,0,0.4,0c0,0.1,0,0.1,0,0.2C-659.6,267.6-659.6,267.9-659.5,268.1z
				 M-660.3,267.5c0,0.2,0,0.4,0,0.6c-0.2,0-0.5,0-0.7,0c0-0.1,0-0.3,0-0.5c0-0.1,0-0.2,0-0.4c0.2,0,0.4,0,0.6-0.1
				C-660.3,267.3-660.3,267.4-660.3,267.5z M-661.2,268c-0.2,0-0.3,0-0.5,0c0.1-0.2,0.1-0.5,0.2-0.7c0.1,0,0.2,0,0.3,0
				c0,0.1,0,0.2,0,0.3C-661.3,267.8-661.3,267.9-661.2,268z M-662,267.6c0,0,0.1-0.1,0.1-0.1c0,0.2,0,0.4,0,0.5c0,0-0.1,0-0.1,0
				c-0.2,0-0.4,0-0.7,0C-662.4,267.9-662.2,267.8-662,267.6z M-652.2,269C-652.2,269-652.2,269-652.2,269
				C-652.2,269-652.2,269-652.2,269C-652.2,269-652.2,269-652.2,269c0.1,0.2,0.1,0.3,0.2,0.3c-0.3,0.2-1.3,0.3-1.9,0.3
				c-1.2,0.1-2.5,0.1-4,0.1c-1.4,0-2.8-0.1-3.9-0.2c-0.5,0-1.3-0.2-1.2-0.3c0.1-0.1,0.4-0.2,0.6-0.3c0,0,0.1,0,0.1,0
				c1.2,0.3,2.7,0.5,4.3,0.5c0.8,0,1.5,0,2.2-0.1c0,0,0,0,0,0l0,0c0,0,0,0,0-0.1c0.7-0.1,1.4-0.1,2-0.3c0.5-0.1,1-0.2,1.4-0.4
				C-652.3,268.8-652.3,268.9-652.2,269z M-652.1,267.7c0.1,0.1,0.2,0.2,0.2,0.4c-0.3,0.1-1.3,0-1.9,0.1c-0.5,0-1.1,0-1.7,0
				c0-0.2,0-0.4,0-0.5c0-0.2,0-0.5,0-0.7c1,0,1.8,0.1,2.3,0.2l0.6,0.1C-652.4,267.4-652.2,267.5-652.1,267.7
				C-652.1,267.7-652.1,267.7-652.1,267.7C-652.1,267.7-652.1,267.7-652.1,267.7z"/>
			<path class="st4" d="M-659.2,271.8l0.2-0.1c-2.2,0-6.9,1.8-9.1,6.4c0-0.1,0-0.2,0-0.4c0,0,0,0,0,0c0.5-1.2,1.1-2.2,1.5-2.9
				c-0.4,0.3-1,0.9-1.6,1.6c0.2-0.4,0.4-0.8,0.6-1.1c0.5-0.7,1-1.3,1.5-1.8c-2,0.8-5.3,4.6-5.4,9.8c-0.2,5,2.6,9,4.5,10.1l0.2,0.1
				c-0.4-0.5-0.9-1.1-1.3-1.9c0.7,0.8,1.3,1.3,1.9,1.7l0.1,0.1c-0.2-0.3-0.5-0.7-0.7-1.1c-0.4-0.6-0.8-1.4-1.3-2.5
				c-0.2-0.9-0.5-2-0.7-3.3c0-0.1,0-0.1,0-0.2c0.9,3.1,3,5.3,4.4,6c-1.8-1.7-5-6.4-3.4-12C-666.5,275.1-661.7,272.5-659.2,271.8z"/>
			<path class="st4" d="M-643.4,293.8c-0.2-0.2-0.7-0.6-1.3-0.8c-0.6-0.1-1.2-0.1-1.5,0h0c0.3,0.1,0.8,0.2,1.4,0.3
				C-644.1,293.6-643.7,293.8-643.4,293.8z"/>
			<path class="st4" d="M-654.5,292.4c-0.8-0.1-2.4-0.2-4.2-0.2c-1.8,0-3.3,0.1-4.2,0.2c0.8,0.1,2.4,0.2,4.2,0.2
				C-656.9,292.5-655.3,292.5-654.5,292.4L-654.5,292.4z"/>
			<path class="st4" d="M-655.4,293.3c-0.8-0.1-2.2-0.1-3.9-0.1c-1.7,0-3.1,0.1-3.9,0.3c0.8,0.1,2.2,0.1,3.9,0.1
				C-657.6,293.5-656.2,293.4-655.4,293.3L-655.4,293.3z"/>
		</g>
	</g>
	<line class="st6" x1="-665.8" y1="389.6" x2="-566.5" y2="389.6"/>
	<line class="st6" x1="-939.8" y1="207.8" x2="-771.1" y2="207.8"/>
	<g>
		<g>
			<path class="st4" d="M7,12.8c0-2.5-0.7-3.4-1.7-3.4c-1.7,0-2.8,1.5-2.8,7.1c0,0,0,0,0,4.4c0,0-0.3,0.4-1,0.4
				c-0.8,0-1.4-0.5-1.4-1.7V8.8c0,0,0.3-0.4,1-0.4c0.8,0,1.4,0.5,1.4,1.7c0.6-1.1,1.6-1.7,3.2-1.7c1.6,0,2.9,0.8,3.5,2.3
				c0.6-1.5,1.7-2.3,3.5-2.3c2.3,0,3.9,1.5,3.9,4.5v4c0,2.2,0.8,3.3,1.9,3.3c1.2,0,2.6-1.2,2.6-5.5c0,0,0-0.2,0.4-0.2
				c0.2,0,0.5,0.3,0.5,1.5c0,3.1-1.4,5.3-3.9,5.3c-2.8,0-4.1-2-4.1-5.2v-3.3c0-2.5-0.7-3.4-1.7-3.4c-1.4,0-2.8,1.5-2.8,7.1v4.4
				c0,0-0.3,0.4-1.1,0.4c-0.8,0-1.5-0.5-1.5-1.7V12.8z"/>
			<path class="st4" d="M26.9,21.3c-3,0-5.6-2.2-5.6-6.5c0-4.1,2.3-6.4,5.5-6.4c3.1,0,5.5,2.2,5.5,6.4
				C32.3,18.3,30.4,21.3,26.9,21.3z M26.9,20.2c1.5,0,2.2-0.7,2.5-2.5c-2.5-0.5-4.6-2.5-5.5-4.5c0,0.5,0,1,0,1.6
				C23.9,18.7,24.8,20.2,26.9,20.2z M24.9,11c0,2.5,2.2,5,4.7,5.7c0-0.5,0.1-1.2,0.1-1.8c0-3.8-0.6-5.3-2.9-5.3
				C25.8,9.5,24.9,10,24.9,11z"/>
			<path class="st4" d="M40,21.3c-3,0-5.6-2.2-5.6-6.5c0-4.1,2.3-6.4,5.5-6.4c3.1,0,5.5,2.2,5.5,6.4C45.3,18.3,43.4,21.3,40,21.3z
				 M40,20.2c1.5,0,2.2-0.7,2.5-2.5c-2.5-0.5-4.6-2.5-5.5-4.5c0,0.5,0,1,0,1.6C37,18.7,37.8,20.2,40,20.2z M38,11
				c0,2.5,2.2,5,4.7,5.7c0-0.5,0.1-1.2,0.1-1.8c0-3.8-0.6-5.3-2.9-5.3C38.9,9.5,38,10,38,11z"/>
			<path class="st4" d="M62.2,14.5c0.2,0,0.5,0.3,0.5,1.5c0,3.1-1.4,5.3-3.8,5.3c-2.8,0-4.1-2-4.1-5.2v-3.3c0-2.5-0.7-3.4-1.7-3.4
				c-1.7,0-3.3,1.4-3.3,6.7v4.9c0,0-0.3,0.4-1,0.4c-0.8,0-1.4-0.5-1.4-1.7V8.8c0,0,0.3-0.4,1-0.4c0.8,0,1.4,0.4,1.4,2.1
				c0.8-1.4,1.9-2.1,3.7-2.1c2.3,0,3.9,1.5,3.9,4.5v4c0,2.2,0.8,3.3,1.8,3.3c1.2,0,2.6-1.2,2.6-5.5C61.8,14.7,61.8,14.5,62.2,14.5z"
				/>
		</g>
		<path class="st4" d="M67,6.9L67,6.9C67,7,66.9,7,66.8,7c0,0,0.1,0,0.1,0c0,0,0,0-0.1,0c0,0,0,0,0,0c0,0-0.1,0-0.1,0
			c-0.1,0-0.3,0-0.4,0.1c-0.1,0-0.3,0.3-0.1,0.4c0.1,0.1,0.2,0.1,0.3,0.2c0.1,0,0.2,0.1,0.3,0.1c-0.1,0-0.2,0.1-0.3,0.1
			c-0.1,0.3,0,0.4,0.2,0.5c0.2,0.1,0.4,0.1,0.5,0.1c0.7,0.2,1.5,0.2,2.4,0.2c0.9,0,1.7-0.1,2.4-0.2c0.3-0.1,0.7-0.1,0.9-0.2
			c0,0,0.1,0,0.1-0.1c0.1-0.1,0.2-0.1,0.2-0.2c0,0,0,0,0,0c0-0.1,0-0.1-0.1-0.2c-0.1-0.1-0.1-0.1-0.2-0.1c0,0,0,0,0,0
			c0.1-0.1,0.4-0.1,0.3-0.4c-0.1-0.1-0.1-0.1-0.2-0.1c0-0.1-0.1-0.1-0.1-0.2v0c0,0,0,0,0,0.1l-0.1-0.1c0,0,0,0,0,0c0,0,0,0,0,0
			C72.9,6,74.3,5.1,74,3.4C73.7,1.9,72.2,0,70,0c-2.2,0-3.8,1.7-4.1,3.3C65.4,5.1,67.2,5.9,67,6.9z M70.9,6.8c0,0.1,0,0.3,0,0.4
			c0,0.1,0,0.2,0,0.3c-0.1,0-0.2,0-0.4,0c0-0.1,0-0.2,0-0.4c0-0.1,0-0.2,0-0.3C70.7,6.8,70.8,6.8,70.9,6.8z M70.4,7.5
			c-0.1,0-0.2,0-0.3,0c0-0.1,0-0.2,0-0.4c0-0.1,0-0.2-0.1-0.3c0.1,0,0.2,0,0.3,0c0,0.1,0,0.2,0,0.3C70.4,7.2,70.4,7.4,70.4,7.5z
			 M69.9,7.1c0,0.1,0,0.2,0,0.4c-0.1,0-0.2,0-0.2,0c-0.1,0-0.2,0-0.2,0c0-0.1,0-0.2,0-0.3c0-0.1,0-0.2,0-0.3c0.2,0,0.3,0,0.4,0
			C69.9,6.9,69.9,7,69.9,7.1z M69.3,7.5c-0.1,0-0.3,0-0.4,0c0-0.1,0-0.3,0-0.5c0-0.1,0-0.1,0-0.1c0.1,0,0.2,0,0.4,0
			c0,0.1,0,0.2,0,0.3C69.3,7.3,69.3,7.4,69.3,7.5z M68.8,7.5c-0.1,0-0.2,0-0.3,0c0-0.1,0-0.2,0-0.4c0-0.1,0-0.1,0-0.2
			c0.1,0,0.2,0,0.2,0c0,0,0,0.1,0,0.1C68.7,7.2,68.7,7.3,68.8,7.5z M68.3,7.1c0,0.1,0,0.2,0,0.3c-0.1,0-0.3,0-0.4,0
			c0-0.1,0-0.2,0-0.3c0-0.1,0-0.2,0-0.2c0.1,0,0.2,0,0.4,0C68.3,7,68.3,7,68.3,7.1z M67.7,7.4c-0.1,0-0.2,0-0.3,0
			c0-0.1,0.1-0.3,0.1-0.4c0.1,0,0.1,0,0.2,0c0,0.1,0,0.1,0,0.2C67.7,7.3,67.7,7.3,67.7,7.4z M67.3,7.2C67.3,7.1,67.3,7.1,67.3,7.2
			c0.1,0,0.1,0.2,0.1,0.2c0,0,0,0-0.1,0c-0.1,0-0.3,0-0.4,0C67,7.3,67.2,7.3,67.3,7.2z M73.2,8C73.1,8,73.1,8,73.2,8L73.2,8
			C73.2,8,73.2,8,73.2,8c0,0.1,0.1,0.2,0.1,0.2c-0.2,0.1-0.8,0.2-1.2,0.2c-0.7,0-1.5,0.1-2.4,0.1c-0.8,0-1.7,0-2.3-0.1
			c-0.3,0-0.8-0.1-0.7-0.2C66.8,8.1,66.9,8,67.1,8c0,0,0.1,0,0.1,0c0.7,0.2,1.6,0.3,2.6,0.3c0.5,0,0.9,0,1.3-0.1c0,0,0,0,0,0v0
			c0,0,0,0,0,0c0.4,0,0.8-0.1,1.2-0.2C72.5,8,72.8,7.9,73,7.8C73.1,7.9,73.1,7.9,73.2,8z M73.2,7.2c0.1,0.1,0.1,0.1,0.1,0.2
			c-0.2,0.1-0.8,0-1.2,0.1c-0.3,0-0.7,0-1,0c0-0.1,0-0.2,0-0.3c0-0.1,0-0.3,0-0.4c0.6,0,1.1,0,1.4,0.2L72.9,7
			C73,7.1,73.1,7.1,73.2,7.2C73.2,7.2,73.2,7.2,73.2,7.2C73.2,7.2,73.2,7.2,73.2,7.2z"/>
		<path class="st5" d="M67.2,12c-0.1,0-0.2,0.1-0.2,0.1c-0.1,0.1-0.2,0.1-0.2,0.2c0,0,0,0,0,0c0,0.2-0.1,0.3-0.3,0.3
			c0,0-0.1,0.1-0.1,0.1c-0.1,0.1-0.1,0.2-0.1,0.3c-0.2,0.6-0.2,1.1-0.1,1.7c0,0.1,0.1,0.2,0.1,0.3c0.1,0.3,0.3,0.6,0.5,0.9
			c0.1,0.1,0.1,0.2,0.2,0.3c0.1,0.1,0.2,0.2,0.3,0.3c0.1,0,0.2,0,0.4,0c0.2,0.1,0.2,0.3,0,0.3c0.5,0.5,1,0.9,1.4,1.4
			c0.1,0.1,0.1,0.1,0.2,0.2c0.3,0.3,0.6,0.6,0.9,0.9c0.1,0.1,0.1,0.1,0.2,0.2c0.4,0.4,0.8,0.9,1.2,1.3c0.3-0.5,0.7-0.9,1-1.4
			c0.1-0.1,0.1-0.1,0.2-0.2c0.3-0.3,0.5-0.6,0.8-1c0.1-0.1,0.1-0.1,0.2-0.2c0,0,0,0,0,0c0,0,0,0,0,0c-0.8,0-0.7-0.7,0.3-0.5
			c0,0,0.1,0.1,0.1,0.1c0.5-0.5,1-1.1,1.4-1.7c0.1-0.1,0.1-0.2,0.2-0.3c0.2-0.3,0.3-0.6,0.4-0.9c0-0.1,0.1-0.2,0.1-0.3
			c0.1-0.6,0-1.2-0.3-1.7c-0.1-0.1-0.1-0.2-0.2-0.3c-0.1-0.2-0.3-0.3-0.5-0.4c-0.1-0.1-0.2-0.1-0.2-0.2c-0.1-0.1-0.2-0.1-0.3-0.1
			c-0.7-0.3-1.5-0.3-2.2,0.1c-0.7,0.3-1.1,1-1.3,1.6c-0.4-0.6-0.9-1.3-1.6-1.6C68.7,11.7,67.9,11.7,67.2,12z M71.4,14.7
			c0.3,0,0.7,0.1,0.6,0.3c0.2-0.1,0.1-0.4,0.4-0.4c0.3,0.2,0.7,0.6,1.3,0.5c-0.3,0.2,0.6,0.4,0.6,0.8c-0.8,0.1-1.6,0.1-2.5-0.2
			c0.2-0.4-0.3-0.1-0.6-0.5C71.1,14.9,71.3,14.8,71.4,14.7z M70,15.7c-0.1,0.1-0.4,0.1-0.3,0.4c-0.2,0-0.5,0-0.7,0
			c-0.2-0.2-0.3-0.4-0.3-0.6C69.5,15.3,69.5,15.6,70,15.7z"/>
		<path class="st4" d="M73.8,22.1c-1.4,0-2.8,0-4.2,0c-0.7,0-1.4,0.1-2.2,0.1c-0.7,0.2-1.4-0.1-2.1,0.6c-1.3-1.4-3.4-4.6-2.7-8.6
			c0.7-4,3.8-6.3,5.4-7.2l0.2-0.1c-1.8,0.3-5.6,2.6-6.4,7.1c-0.8,4.4,1.8,7.8,3.4,8.8c-0.1,0.1-0.1,0.1-0.2,0.2
			c3.2,1.2,5.9,0.7,8.4,0.8c1.1-0.1,2.2-0.1,3.2-0.2c0.4,0,1.7-0.2,2-0.6c0.1-0.1,0.1-0.2,0.1-0.3C78.7,22.1,74.3,22.1,73.8,22.1z"
			/>
		<g>
			<path class="st5" d="M93.2,14.6c0.2,0,0.5,0.3,0.5,1.5c0,3.1-1.4,5.3-3.8,5.3c-1.9,0-3.1-0.9-3.7-2.5c-0.7,1.5-1.9,2.5-3.5,2.5
				c-3,0-4.8-1.9-4.8-6.5s2.4-6.4,5.5-6.4c1.4,0,2.2,0.3,2.7,0.8c0.2-0.6,0.8-0.8,1.3-0.8c0.8,0,1.1,0.4,1.1,0.4v8.1
				c0,2.2,0.8,3.3,1.8,3.3c1.5,0,2.6-1.5,2.6-5.5C92.8,14.8,92.8,14.6,93.2,14.6z M85.8,16.5v-3.9c0-1.9-1.1-3-2.3-3
				c-1.8,0-3.1,0.6-3.1,5.3s1.2,5.4,2.5,5.4C83.9,20.3,85.8,19,85.8,16.5z"/>
			<path class="st5" d="M95.3,21c0,0-0.3,0.4-1.1,0.4c-0.8,0-1.4-0.5-1.4-1.7V8.9c0,0,0.3-0.4,1.1-0.4c0.8,0,1.4,0.5,1.4,1.7v2.1
				c0.7-1.8,1.9-3.5,3.8-3.5c2.5,0,3.3,1.7,3.3,3.2c0,1-0.7,1.6-1.3,1.6c-0.7,0-0.8-0.3-0.8-0.3s0.2-0.4,0.2-1.1
				c0-1.3-0.8-2.3-1.8-2.3c-1.9,0-3.4,4.7-3.4,6.5L95.3,21L95.3,21z"/>
			<path class="st5" d="M109.4,21.4c-3,0-5.6-2.2-5.6-6.5c0-4.1,2.3-6.4,5.5-6.4c3.1,0,5.5,2.2,5.5,6.4
				C114.7,18.4,112.8,21.4,109.4,21.4z M109.4,20.3c1.5,0,2.2-0.7,2.5-2.5c-2.5-0.5-4.6-2.5-5.5-4.5c0,0.5,0,1,0,1.6
				C106.3,18.8,107.2,20.3,109.4,20.3z M107.4,11.1c0,2.5,2.2,5,4.7,5.7c0-0.5,0.1-1.2,0.1-1.8c0-3.8-0.6-5.3-2.9-5.3
				C108.2,9.6,107.4,10.1,107.4,11.1z"/>
			<path class="st5" d="M123.7,12.9c0-2.5-0.7-3.4-1.7-3.4c-1.7,0-2.8,1.5-2.8,7.1c0,0,0,0,0,4.4c0,0-0.3,0.4-1.1,0.4
				c-0.8,0-1.4-0.5-1.4-1.7V8.9c0,0,0.3-0.4,1.1-0.4c0.8,0,1.4,0.5,1.4,1.7c0.6-1.1,1.6-1.7,3.2-1.7c1.6,0,2.9,0.8,3.5,2.3
				c0.6-1.5,1.7-2.3,3.5-2.3c2.3,0,3.9,1.5,3.9,4.5v4c0,2.2,0.8,3.3,1.9,3.3c1.2,0,2.6-1.2,2.6-5.5c0,0,0-0.2,0.4-0.2
				c0.2,0,0.5,0.3,0.5,1.5c0,3.1-1.4,5.3-3.9,5.3c-2.8,0-4.1-2-4.1-5.2v-3.3c0-2.5-0.7-3.4-1.7-3.4c-1.4,0-2.8,1.5-2.8,7.1V21
				c0,0-0.3,0.4-1.1,0.4c-0.8,0-1.5-0.5-1.5-1.7V12.9z"/>
			<path class="st5" d="M149.4,15c0.4,0,0.6,0.4,0.6,0.9c0,2.4-1.6,5.6-5.6,5.6c-4.1,0-6.6-2.1-6.6-6.2c0-4.4,2.4-6.7,5.5-6.7
				c2.5,0,3.4,1.7,3.4,3.2c0,2.8-2.5,4.9-6.1,4.9c0.4,2.5,1.9,3.7,3.9,3.7c2.2,0,4.6-1.5,4.6-5.2C149,15.1,149,15,149.4,15z
				 M140.5,15.6c1.9-0.2,4.2-1.2,4.2-3.7c0-1.5-0.7-2.3-1.8-2.3c-1.7,0-2.4,1.5-2.4,5.7V15.6z"/>
		</g>
	</g>
	<g>
		
			<text transform="matrix(0.9761 0 0 1 -711.0659 165.3286)" class="st4" style="font-family:'Sofia-Regular'; font-size:38.6024px;">moon</text>
		
			<text transform="matrix(0.9761 0 0 1 -626.7798 165.3286)" class="st5" style="font-family:'Sofia-Regular'; font-size:38.6024px;">  </text>
		<path class="st4" d="M-619.8,145.7l0,0.1c-0.1,0-0.2,0.1-0.2,0.1c0,0,0.1,0,0.2,0c0,0-0.1,0-0.1,0.1c0,0,0,0,0,0c0,0-0.1,0-0.1,0
			c-0.2,0-0.4,0-0.6,0.1c-0.2,0-0.4,0.4-0.1,0.6c0.2,0.1,0.2,0.2,0.4,0.2c0.1,0.1,0.3,0.1,0.4,0.1c-0.1,0-0.2,0.1-0.3,0.1
			c-0.2,0.4,0,0.5,0.2,0.6c0.2,0.1,0.5,0.1,0.7,0.2c1,0.2,2.1,0.3,3.3,0.3c1.2,0,2.3-0.1,3.3-0.2c0.5-0.1,0.9-0.2,1.3-0.3
			c0.1,0,0.1-0.1,0.2-0.1c0.1-0.1,0.2-0.2,0.2-0.3c0,0,0,0,0,0c0-0.1,0-0.2-0.1-0.3c-0.1-0.1-0.2-0.1-0.2-0.2c0,0,0,0,0,0
			c0.2-0.1,0.5-0.2,0.5-0.5c-0.1-0.1-0.2-0.2-0.2-0.2c0-0.1-0.1-0.2-0.2-0.3l0,0c0,0,0,0,0,0.1l-0.1-0.2c0,0,0,0,0,0s0,0,0,0
			c-0.5-1.2,1.5-2.5,1.1-4.7c-0.3-2.2-2.4-4.6-5.4-4.7c-2.9,0-5.1,2.3-5.5,4.5C-622,143.3-619.5,144.5-619.8,145.7z M-614.4,145.6
			c0,0.2,0,0.4,0,0.5c0,0.1,0,0.3,0,0.4c-0.2,0-0.3,0-0.5,0c0-0.2,0-0.3,0-0.5c0-0.2,0-0.3,0-0.4
			C-614.8,145.6-614.6,145.6-614.4,145.6z M-615.2,146.6c-0.1,0-0.2,0-0.4,0c0-0.2,0-0.3,0-0.5c0-0.1,0-0.3-0.1-0.4
			c0.1,0,0.3,0,0.4,0c0,0.1,0,0.3,0,0.4C-615.2,146.2-615.2,146.4-615.2,146.6z M-615.8,146.1c0,0.2,0,0.3,0,0.5c-0.1,0-0.2,0-0.3,0
			c-0.1,0-0.2,0-0.3,0c0-0.1,0-0.3,0-0.4c0-0.2,0-0.3,0-0.5c0.2,0,0.4,0,0.6,0C-615.8,145.8-615.8,145.9-615.8,146.1z M-616.7,146.6
			c-0.2,0-0.4,0-0.5,0c0-0.2,0-0.4,0-0.6c0-0.1,0-0.1,0-0.2c0.2,0,0.3,0,0.5,0c0,0.1,0,0.3,0,0.4
			C-616.7,146.3-616.7,146.4-616.7,146.6z M-617.4,146.6c-0.1,0-0.3,0-0.4,0c0-0.1,0-0.3,0-0.5c0-0.1,0-0.2,0-0.3c0.1,0,0.2,0,0.3,0
			c0,0.1,0,0.1,0,0.2C-617.5,146.1-617.4,146.4-617.4,146.6z M-618,146.1c0,0.2,0,0.3,0,0.5c-0.2,0-0.4,0-0.5,0c0-0.1,0-0.2,0-0.4
			c0-0.1,0-0.2,0-0.3c0.2,0,0.3,0,0.5-0.1C-618,145.9-618,146-618,146.1z M-618.8,146.5c-0.1,0-0.2,0-0.4,0c0.1-0.2,0.1-0.4,0.2-0.6
			c0.1,0,0.1,0,0.2,0c0,0.1,0,0.2,0,0.3C-618.8,146.3-618.8,146.4-618.8,146.5z M-619.4,146.1C-619.4,146.1-619.3,146.1-619.4,146.1
			c0.1,0.1,0.1,0.2,0.1,0.4c0,0,0,0-0.1,0c-0.2,0-0.3,0-0.5,0C-619.7,146.4-619.5,146.3-619.4,146.1z M-611.4,147.3
			C-611.4,147.3-611.4,147.3-611.4,147.3C-611.4,147.3-611.4,147.3-611.4,147.3C-611.4,147.3-611.4,147.3-611.4,147.3
			c0.1,0.1,0.1,0.2,0.2,0.3c-0.2,0.2-1.1,0.2-1.6,0.2c-0.9,0.1-2.1,0.1-3.2,0.1c-1.2,0-2.2-0.1-3.2-0.1c-0.4,0-1-0.2-1-0.2
			c0.1-0.1,0.3-0.2,0.5-0.3c0,0,0.1,0,0.1,0c1,0.3,2.2,0.4,3.5,0.4c0.6,0,1.2,0,1.8-0.1c0,0,0,0,0,0v0c0,0,0,0,0-0.1
			c0.6-0.1,1.1-0.1,1.6-0.2c0.4-0.1,0.8-0.2,1.1-0.3C-611.5,147.1-611.5,147.2-611.4,147.3z M-611.3,146.2c0.1,0.1,0.1,0.2,0.2,0.3
			c-0.3,0.1-1.1,0-1.6,0.1c-0.4,0-0.9,0-1.4,0c0-0.1,0-0.3,0-0.4c0-0.2,0-0.4,0-0.5c0.8,0,1.5,0.1,1.9,0.2l0.5,0.1
			C-611.6,146-611.5,146.1-611.3,146.2C-611.4,146.2-611.4,146.2-611.3,146.2C-611.4,146.2-611.4,146.2-611.3,146.2z"/>
		<path class="st5" d="M-619.5,152.7c-0.1,0.1-0.2,0.1-0.3,0.2c-0.1,0.1-0.2,0.2-0.3,0.2c0,0,0,0,0,0c0,0.2-0.1,0.4-0.4,0.4
			c0,0.1-0.1,0.1-0.1,0.2c-0.1,0.1-0.1,0.2-0.2,0.4c-0.3,0.8-0.3,1.6-0.1,2.3c0,0.1,0.1,0.3,0.2,0.4c0.2,0.4,0.4,0.8,0.7,1.2
			c0.1,0.1,0.2,0.2,0.3,0.4c0.1,0.1,0.2,0.3,0.4,0.4c0.1,0,0.3,0,0.5,0c0.2,0.2,0.2,0.4,0,0.5c0.7,0.6,1.3,1.3,2,1.9
			c0.1,0.1,0.2,0.2,0.2,0.2c0.4,0.4,0.8,0.9,1.2,1.3c0.1,0.1,0.2,0.2,0.3,0.3c0.6,0.6,1.1,1.2,1.6,1.8c0.4-0.6,0.9-1.2,1.4-1.8
			c0.1-0.1,0.2-0.2,0.2-0.3c0.4-0.4,0.7-0.9,1-1.3c0.1-0.1,0.1-0.2,0.2-0.3c0,0,0,0,0,0c0,0,0,0,0,0c-1.2,0-1-1,0.4-0.8
			c0.1,0.1,0.1,0.1,0.2,0.2c0.7-0.8,1.3-1.5,1.9-2.3c0.1-0.1,0.2-0.2,0.2-0.4c0.2-0.4,0.4-0.8,0.5-1.2c0-0.1,0.1-0.3,0.1-0.5
			c0.1-0.8,0-1.6-0.5-2.3c-0.1-0.1-0.1-0.2-0.2-0.4c-0.2-0.2-0.4-0.4-0.6-0.6c-0.1-0.1-0.2-0.2-0.3-0.2c-0.1-0.1-0.2-0.1-0.4-0.2
			c-1-0.4-2.1-0.4-3,0.1c-0.9,0.4-1.4,1.3-1.8,2.2c-0.5-0.9-1.2-1.7-2.1-2.1C-617.5,152.3-618.6,152.3-619.5,152.7z M-613.8,156.4
			c0.5,0.1,0.9,0.1,0.8,0.4c0.3-0.1,0.1-0.5,0.6-0.6c0.4,0.3,1,0.8,1.7,0.7c-0.5,0.3,0.8,0.6,0.8,1.1c-1.1,0.1-2.1,0.1-3.4-0.3
			c0.3-0.6-0.4-0.2-0.8-0.7C-614.2,156.7-614,156.5-613.8,156.4z M-615.7,157.8c-0.2,0.1-0.5,0.2-0.4,0.5c-0.3,0-0.6,0-1-0.1
			c-0.2-0.3-0.4-0.5-0.4-0.9C-616.3,157.3-616.4,157.7-615.7,157.8z"/>
		<path class="st4" d="M-610.6,166.5c-1.9,0-3.8-0.1-5.7,0c-1,0-1.9,0.1-3,0.2c-0.9,0.3-1.9-0.2-2.8,0.9c-1.8-1.9-4.7-6.3-3.6-11.7
			c1-5.4,5.2-8.6,7.4-9.8l0.2-0.1c-2.4,0.5-7.6,3.5-8.7,9.7c-1.1,6,2.5,10.6,4.7,11.9c-0.1,0.1-0.1,0.2-0.2,0.2
			c4.3,1.7,8.1,1,11.4,1.1c1.5-0.1,3-0.1,4.4-0.3c0.5-0.1,2.3-0.2,2.7-0.9c0.1-0.1,0.1-0.2,0.1-0.4
			C-603.8,166.5-609.8,166.5-610.6,166.5z"/>
		
			<text transform="matrix(0.9761 0 0 1 -605.1128 165.4438)" class="st5" style="font-family:'Sofia-Regular'; font-size:38.6024px;">arome</text>
	</g>
</g>
</svg>
