<?xml version="1.0" encoding="UTF-8"?>
<svg width="165px" height="16px" viewBox="0 0 165 16" version="1.1" xmlns="http://www.w3.org/2000/svg" xmlns:xlink="http://www.w3.org/1999/xlink">
    <title>logo-white</title>
    <g id="Symbols" stroke="none" stroke-width="1" fill="none" fill-rule="evenodd">
        <g id="header/desktop" transform="translate(-24.000000, -24.000000)" fill="#000000">
            <path d="M110.6524,31.8480621 L103.386834,31.8480621 L103.386834,33.6852835 L108.199294,33.6852835 C107.939441,36.7945805 105.722434,37.7852603 103.079289,37.9735819 C99.7532344,38.2091648 97.1100893,35.3579045 97.0402751,32.1312687 C96.9690103,28.8557418 99.6819695,26.0296514 103.079289,26.0533726 C105.36756,26.0770939 107.278836,27.3953446 108.151784,28.8320205 L109.944104,27.890594 C109.072424,25.6990022 106.19318,24.0738237 103.079289,24.0026599 C98.4316618,23.8855022 94.6094738,27.6546488 94.6807387,32.1312687 C94.7520035,36.5367248 98.5266816,40.0701074 103.079289,39.9989436 C109.850535,39.8817859 111.100842,34.3214118 110.6524,31.8480621 L110.6524,31.8480621 Z M150.167745,33.3803475 L152.196163,28.1017314 L154.226032,33.3803475 L150.167745,33.3803475 Z M151.441808,24.4984525 L145.142941,39.5281398 L147.643375,39.5281398 L149.31837,35.2635627 L155.004142,35.2635627 L156.678956,39.5281398 L159.179572,39.5281398 L152.880704,24.4984525 L151.441808,24.4984525 Z M87.6503644,38.5858079 C86.9420683,38.5858079 86.423993,38.0905585 86.423993,37.3847149 C86.423993,36.8183017 86.7772344,36.4891012 87.4380207,36.0412944 C87.4380207,36.0412944 87.4855305,36.0175731 87.5330404,35.9701306 C87.6978743,36.1584521 88.971937,37.6662918 89.1605258,37.8785157 C88.6185142,38.3500438 88.1463168,38.5858079 87.6503644,38.5858079 L87.6503644,38.5858079 Z M88.051297,32.908095 C88.4997395,32.908095 88.7833481,33.1675804 88.7833481,33.5679447 C88.7833481,33.9208664 88.5710044,34.2277943 88.1463168,34.485831 C88.1463168,34.485831 88.0275421,34.5569948 87.933973,34.6044374 C87.8153797,34.4635584 87.5567954,34.1803518 87.5567954,34.1803518 C87.3905108,33.9920303 87.3206966,33.8037087 87.3206966,33.5916659 C87.3206966,33.1913016 87.6266095,32.908095 88.051297,32.908095 L88.051297,32.908095 Z M91.6611412,36.8894655 L91.7324061,36.7723078 L90.9528451,35.9464093 C90.9528451,35.9464093 90.2222447,36.8655632 90.0574108,37.0777871 C89.845067,36.842023 88.8531623,35.6646513 88.6408185,35.4288873 C89.5377035,34.8639227 89.9386361,34.2737882 89.9386361,33.5442234 C89.9386361,32.5077307 89.1842807,31.8241598 88.0275421,31.8241598 C86.8960091,31.8241598 86.0943252,32.531452 86.0943252,33.5442234 C86.0943252,34.0617454 86.2589778,34.485831 86.6363368,34.887644 C86.6363368,34.887644 86.7311752,34.9810804 86.8249256,35.0759655 C85.7155155,35.7343665 85.1736853,36.4891012 85.1736853,37.3847149 C85.1736853,38.7265058 86.1641393,39.6458408 87.6028545,39.6458408 C88.4522297,39.6458408 89.2317906,39.3151916 89.8911262,38.7265058 C90.0574108,38.9148273 90.5756674,39.5272344 90.5756674,39.5272344 L92.1333387,39.5272344 C92.1333387,39.5272344 90.9290902,38.1142798 90.7642563,37.9257772 C91.0953747,37.6427516 91.4012876,37.2898299 91.6611412,36.8894655 L91.6611412,36.8894655 Z M114.378661,33.3803475 L116.40853,28.1017314 L118.43858,33.3803475 L114.378661,33.3803475 Z M115.654175,24.4984525 L109.353857,39.5281398 L111.855923,39.5281398 L113.530737,35.2635627 L119.215058,35.2635627 L120.891504,39.5281398 L123.39212,39.5281398 L117.091621,24.4984525 L115.654175,24.4984525 Z M127.969026,37.7379989 L126.576188,37.7379989 L126.576188,32.6252506 L128.03884,32.6252506 C129.620266,32.6252506 132.001925,32.6728742 132.001925,35.0986003 C132.02568,37.3376346 130.138523,37.7617201 127.969026,37.7379989 L127.969026,37.7379989 Z M126.576188,26.3353117 L126.953547,26.3353117 C128.770891,26.2878692 130.751799,26.1944327 130.751799,28.4557396 C130.751799,30.7644891 128.888215,30.7407678 126.931062,30.7882103 L126.576188,30.7882103 L126.576188,26.3353117 Z M131.460095,31.3768962 C132.474304,30.6933253 133.111336,29.8214328 133.111336,28.6203399 C133.158664,25.1342187 130.775554,24.5915268 128.322448,24.5219927 L124.123083,24.5219927 L124.123083,39.5514989 L128.983235,39.5514989 C132.073372,39.5514989 134.313952,38.491285 134.480237,35.4989646 C134.597742,33.6854645 133.252415,31.8009818 131.460095,31.3768962 L131.460095,31.3768962 Z M172.013223,35.7113696 L161.491054,24.4984525 L160.030035,24.4984525 L160.030035,39.5281398 L162.24686,39.5281398 L162.24686,28.5256359 L172.555053,39.5281398 L174.207744,39.5281398 L174.207744,24.4984525 L172.013223,24.4984525 L172.013223,35.7113696 Z M139.340026,37.7379989 L137.947189,37.7379989 L137.947189,32.6252506 L139.40984,32.6252506 C140.991448,32.6252506 143.373107,32.6728742 143.373107,35.0986003 C143.396862,37.3376346 141.533278,37.7617201 139.340026,37.7379989 L139.340026,37.7379989 Z M137.947189,26.3353117 L138.324548,26.3353117 C140.141891,26.2878692 142.122799,26.1944327 142.122799,28.4557396 C142.122799,30.7644891 140.259215,30.7407678 138.302243,30.7882103 L137.947189,30.7882103 L137.947189,26.3353117 Z M142.831095,31.3768962 C143.845304,30.6933253 144.482336,29.8214328 144.482336,28.6203399 C144.529846,25.1342187 142.146554,24.5915268 139.693449,24.5219927 L135.494264,24.5219927 L135.494264,39.5514989 L140.354235,39.5514989 C143.444372,39.5514989 145.684952,38.491285 145.851237,35.4989646 C145.968742,33.6854645 144.64717,31.8009818 142.831095,31.3768962 L142.831095,31.3768962 Z M56.7219765,24.4984525 L54.4574598,24.4984525 L54.4337049,39.5281398 L60.9688521,39.5281398 L60.9688521,37.6892888 L56.7219765,37.6892888 L56.7219765,24.4984525 Z M179.964237,33.3803475 L181.992655,28.1017314 L184.022524,33.3803475 L179.964237,33.3803475 Z M182.724706,24.4984525 L181.238481,24.4984525 L174.937982,39.5281398 L177.440048,39.5281398 L179.115044,35.2635627 L184.800634,35.2635627 L186.497934,39.5281398 L189,39.5281398 L182.724706,24.4984525 Z M49.7157199,36.1832598 C48.536677,37.313189 47.0502706,37.9018748 45.4450894,37.9018748 C43.817604,37.9018748 42.3549525,37.313189 41.1759096,36.1832598 C40.019171,35.0518821 39.4060759,33.6389274 39.4060759,32.0595617 C39.4060759,30.4820068 40.019171,29.0214285 41.1759096,27.8900507 C42.3074427,26.7823942 43.817604,26.1937084 45.4450894,26.1937084 C47.0740255,26.1937084 48.5589813,26.7823942 49.7157199,27.8900507 C50.8708265,28.9977072 51.4855536,30.4582855 51.4855536,32.0595617 C51.5078579,33.6389274 50.8708265,35.0518821 49.7157199,36.1832598 L49.7157199,36.1832598 Z M51.3905339,26.4531937 C49.8105583,24.9688942 47.663547,24.1681655 45.4688444,24.1681655 C43.2518375,24.1681655 41.1285811,24.9927965 39.5709098,26.4531937 C37.9671794,27.9374933 37.1178043,29.9155936 37.1178043,32.0595617 C37.1178043,34.2037109 37.9671794,36.1358173 39.5709098,37.6438381 C41.1521547,39.1281377 43.2755925,39.9525876 45.4688444,39.9525876 C47.663547,39.9525876 49.8105583,39.1281377 51.3905339,37.6438381 C52.9705094,36.1595386 53.8198845,34.2037109 53.8198845,32.0595617 C53.8198845,29.8933209 52.9942643,27.9374933 51.3905339,26.4531937 L51.3905339,26.4531937 Z M67.715799,24.0267433 C66.5367561,24.0504646 65.8522149,24.2387861 64.7669224,24.686593 C61.3456671,26.1471712 59.5771027,29.0446065 59.9067705,32.6491529 C60.1903791,35.8060735 61.7941096,37.9502227 64.7669224,39.2684734 C65.8286413,39.7400015 66.5130012,39.9283231 67.6920441,39.9757656 C68.8948419,40.0469294 69.626893,39.9518632 70.7584261,39.5514989 C71.6313748,39.2447521 72.1512634,39.0564306 72.8595596,38.4677448 L72.8595596,36.3947594 C72.8595596,36.3947594 71.6313748,37.2192093 70.7584261,37.5484098 C69.626893,37.9502227 68.8948419,38.114823 67.6920441,37.9724954 C66.4654913,37.8316164 65.7571952,37.5484098 64.7669224,36.8662875 C63.9413023,36.2998743 63.5166147,35.8757887 63.0206623,35.0290662 C62.5499156,34.2031677 62.4311409,33.6619244 62.3598761,32.7203167 C62.1712872,30.4117484 62.8320735,28.6442422 64.7669224,27.2548277 C65.7571952,26.5475356 66.4654913,26.264329 67.6920441,26.1471712 C68.8948419,26.0285649 69.626893,26.1946138 70.7584261,26.5949781 C71.6313748,26.9004573 72.0799986,27.2311065 72.8595596,27.701186 L72.8595596,25.7230857 C72.1987733,25.1581211 71.9389196,25.0157935 70.7584261,24.545714 C69.7917269,24.143901 68.6824982,23.9793008 67.715799,24.0267433 L67.715799,24.0267433 Z M73.5428314,39.5281398 L81.328105,39.5281398 L81.328105,37.7146398 L75.9021866,37.7146398 L75.9021866,32.5544489 L81.1870261,32.5544489 L81.1870261,30.7409489 L75.9021866,30.7409489 L75.9021866,26.3356738 L81.328105,26.3356738 L81.328105,24.4984525 L73.5428314,24.4984525 L73.5428314,39.5281398 Z M33.9799762,32.4128456 C33.8626522,35.4763298 31.6681309,37.6662918 28.695318,37.6662918 L26.4070464,37.6662918 L26.4070464,26.4298346 L28.719073,26.4535559 C31.8804747,26.5009984 34.1210551,29.0913248 33.9799762,32.4128456 L33.9799762,32.4128456 Z M28.719073,24.5214495 L24,24.5214495 L24,39.5272344 L28.719073,39.5272344 C33.6726126,39.5272344 36.5281015,35.9938518 36.4093268,31.8241598 C36.2920028,27.7955278 33.154356,24.5214495 28.719073,24.5214495 L28.719073,24.5214495 Z" id="logo-white"></path>
        </g>
    </g>
</svg>